<svg width="226" height="79" viewBox="0 0 226 79" fill="none" xmlns="http://www.w3.org/2000/svg">
<g opacity="0.45">
<path opacity="0.45" d="M213.07 74.9564H12.9695C8.03916 74.9564 4 70.1544 4 64.2791V14.6773C4 8.80819 8.03395 4 12.9695 4H213.07C218 4 222.039 8.80199 222.039 14.6773V64.2791C222.034 70.1544 218 74.9564 213.07 74.9564Z" fill="#00212A"/>
</g>
<path d="M207.931 74.9563H18.1031C10.348 74.9563 4 67.3997 4 58.168V20.7944C4 11.5627 10.348 4.0061 18.1031 4.0061H207.931C215.686 4.0061 222.034 11.5627 222.034 20.7944V58.168C222.034 67.3997 215.686 74.9563 207.931 74.9563Z" stroke="#82E5C7" stroke-width="7" stroke-miterlimit="10"/>
<path d="M207.931 74.9563H18.1031C10.348 74.9563 4 67.3997 4 58.168V20.7944C4 11.5627 10.348 4.0061 18.1031 4.0061H207.931C215.686 4.0061 222.034 11.5627 222.034 20.7944V58.168C222.034 67.3997 215.686 74.9563 207.931 74.9563Z" stroke="#82E5C7" stroke-width="7" stroke-miterlimit="10"/>
<path d="M4.70312 39.2642L25.5501 52.9876V74.0568L10.2901 71.5813L4.70312 66.7111V39.2642Z" fill="#82E5C7"/>
</svg>
