<svg width="313" height="488" viewBox="0 0 313 488" fill="none" xmlns="http://www.w3.org/2000/svg">
<path d="M101.948 366.768H208.862C229.085 366.768 245.628 349.182 245.628 327.693V205.707C245.628 184.214 229.083 166.633 208.862 166.633H101.948C81.7249 166.633 65.1819 184.218 65.1819 205.707V327.691C65.1734 349.182 81.7207 366.768 101.948 366.768Z" fill="#EB3C22"/>
<g opacity="0.35">
<path opacity="0.35" d="M111.849 355.78H198.949C219.172 355.78 235.715 338.194 235.715 316.705V216.703C235.715 195.21 219.17 177.629 198.949 177.629H111.849C91.6253 177.629 75.0823 195.214 75.0823 216.703V316.711C75.0802 338.194 91.6274 355.78 111.849 355.78Z" fill="#251335"/>
</g>
<path d="M208.856 369.717H101.948C80.1449 369.717 62.4062 350.864 62.4062 327.691V205.707C62.4062 182.534 80.1449 163.681 101.948 163.681H208.862C230.665 163.681 248.404 182.534 248.404 205.707V327.697C248.398 350.866 230.661 369.717 208.856 369.717ZM101.948 169.576C83.2029 169.576 67.9532 185.783 67.9532 205.707V327.697C67.9532 347.619 83.2029 363.828 101.948 363.828H208.862C227.607 363.828 242.857 347.621 242.857 327.697V205.707C242.857 185.785 227.607 169.576 208.862 169.576H101.948Z" fill="#251335"/>
<path d="M126.875 216.703L119.179 211.044L102.862 199.048L79.714 178.068C78.8179 179.961 66.435 184.892 62.2451 188.158C16.137 224.013 7.3154 288.633 6.41073 326.465C6.13481 336.145 6.41275 345.833 7.24319 355.48C7.29416 356.022 7.32815 356.307 7.32815 356.307C7.32815 356.307 8.11177 356.451 9.47939 356.68C15.4659 357.727 32.6545 360.609 44.1412 361.537C47.371 361.947 50.6397 361.947 53.8695 361.537C61.4466 359.736 57.847 325.815 69.7202 290.712C73.5686 280.324 78.8919 270.543 85.5264 261.671C97.7058 245.283 111.564 230.212 126.875 216.703Z" fill="#F05B18"/>
<path d="M186.105 218.029L193.802 212.369L208.915 196.264L230.13 177.087C232.371 179.72 246.548 186.219 250.729 189.489C296.842 225.338 305.659 289.958 306.568 327.79C306.844 337.47 306.566 347.158 305.736 356.805C305.685 357.347 305.651 357.632 305.651 357.632C305.651 357.632 304.867 357.776 303.5 358.005C297.513 359.052 280.324 361.934 268.838 362.862C265.608 363.272 262.339 363.272 259.109 362.862C251.532 361.061 255.132 327.141 243.259 292.037C239.411 281.65 234.088 271.87 227.455 262.999C215.275 246.61 201.417 231.538 186.105 218.029Z" fill="#F05B18"/>
<path d="M239.124 178.185C258.748 189.694 274.772 206.45 285.394 226.568C295.257 245.223 302 265.367 305.356 286.201C309.481 309.894 310.513 334.022 308.426 357.98L308.18 360.165L306.124 360.537C302.089 361.265 266.387 367.608 258.5 365.738C252.847 364.393 251.808 355.523 250.088 340.823C248.602 328.03 246.546 310.508 240.634 293.031C229.151 259.08 184.795 220.698 184.358 220.316C183.779 219.803 183.416 219.091 183.341 218.321C183.266 217.552 183.485 216.783 183.954 216.168C184.384 215.595 185.023 215.216 185.731 215.114C186.44 215.011 187.16 215.194 187.734 215.623C187.785 215.663 187.836 215.701 187.885 215.744C189.758 217.351 233.898 255.542 245.905 291.052C252.023 309.143 254.115 327.039 255.644 340.108C256.351 346.153 256.96 351.363 257.786 355.071C258.776 359.498 259.725 359.997 259.736 359.993C264.62 361.155 288.048 357.748 303.088 355.109C304.759 332.4 303.669 309.573 299.843 287.127C293.837 252.937 277.969 207.249 236.455 183.36L235.907 183.046C235.24 182.655 234.749 182.022 234.538 181.278C234.326 180.534 234.409 179.737 234.771 179.054C235.083 178.403 235.642 177.904 236.322 177.665C237.003 177.426 237.751 177.467 238.402 177.78C238.455 177.805 238.506 177.833 238.557 177.86L239.124 178.185Z" fill="#251335"/>
<path d="M306.388 364.446C310.739 358.112 312.209 347.398 306.456 343.178C300.703 338.959 263.108 344.251 258.237 347.999C253.365 351.747 253.539 373.412 259.432 376.031C265.325 378.649 296.77 378.45 306.388 364.446Z" fill="#F05B18"/>
<path d="M256.591 345.608C252.131 349.042 251.547 359.751 252.248 366.111C252.772 370.868 254.261 376.927 258.349 378.734C265.024 381.707 298.099 381.531 308.651 366.167C312.059 361.164 313.531 355.094 312.795 349.086C312.594 347.452 312.071 345.874 311.258 344.443C310.444 343.012 309.354 341.757 308.053 340.749C307.91 340.647 307.764 340.551 307.613 340.464C299.56 335.839 262.038 341.428 256.591 345.608ZM304.124 362.709C295.629 375.071 265.805 375.648 260.517 373.302C259.759 372.973 258.366 370.541 257.801 365.43C256.977 357.971 258.51 351.426 259.884 350.369C261.303 349.277 269.893 346.986 282.327 345.521C296.411 343.86 303.623 344.671 304.859 345.589C305.54 346.138 306.105 346.817 306.521 347.587C306.936 348.357 307.194 349.203 307.28 350.074C307.742 354.526 306.624 358.998 304.122 362.709H304.124Z" fill="#251335"/>
<path d="M293.317 244.973C293.741 245.223 294.095 245.575 294.349 245.996C294.602 246.418 294.747 246.896 294.769 247.388C294.833 248.149 294.593 248.905 294.101 249.491C293.609 250.076 292.906 250.443 292.145 250.511C259.016 252.586 241.004 282.092 240.825 282.391C240.65 282.701 240.415 282.973 240.134 283.192C239.853 283.411 239.532 283.573 239.189 283.668C238.846 283.763 238.488 283.789 238.134 283.745C237.781 283.701 237.44 283.588 237.13 283.413C237.077 283.383 237.024 283.349 236.973 283.315C236.338 282.877 235.894 282.214 235.731 281.46C235.567 280.706 235.696 279.919 236.092 279.257C236.877 277.936 255.754 246.889 291.811 244.642C292.335 244.6 292.859 244.716 293.317 244.973Z" fill="#251335"/>
<path d="M73.8549 176.86C54.2289 188.367 38.2038 205.123 27.5832 225.243C17.7187 243.898 10.9754 264.042 7.62111 284.876C3.49497 308.569 2.46276 332.696 4.55035 356.655L4.79669 358.84L6.85236 359.212C10.8873 359.94 46.5896 366.283 54.4768 364.412C60.1299 363.068 61.1683 354.198 62.8884 339.498C64.375 326.705 66.4306 309.183 72.3428 291.706C83.8253 257.755 128.181 219.373 128.619 218.991C129.198 218.478 129.561 217.766 129.636 216.996C129.71 216.227 129.491 215.458 129.022 214.843C128.593 214.27 127.953 213.891 127.244 213.788C126.535 213.686 125.814 213.869 125.24 214.297C125.189 214.338 125.14 214.376 125.092 214.418C123.219 216.026 79.079 254.217 67.072 289.727C60.9538 307.818 58.8621 325.713 57.333 338.782C56.6259 344.828 56.0164 350.038 55.1903 353.745C54.2007 358.173 53.2514 358.672 53.2408 358.668C48.3565 359.827 24.9286 356.423 9.88913 353.784C8.21777 331.075 9.30737 308.248 13.134 285.802C18.8275 253.389 33.3849 210.643 70.2596 185.932C72.2812 184.577 74.3702 183.278 76.5264 182.035L77.0743 181.721C77.7413 181.33 78.2316 180.696 78.4432 179.953C78.6549 179.209 78.5715 178.412 78.2104 177.729C77.8976 177.078 77.3394 176.579 76.6584 176.34C75.9775 176.101 75.2296 176.142 74.579 176.454C74.5259 176.48 74.475 176.507 74.424 176.535L73.8549 176.86Z" fill="#251335"/>
<path d="M6.59744 363.123C2.24613 356.789 0.776587 346.075 6.52949 341.855C12.2824 337.636 49.8769 342.928 54.7485 346.676C59.6201 350.424 59.446 372.089 53.5529 374.708C47.6599 377.326 16.2111 377.127 6.59744 363.123Z" fill="#F05B18"/>
<path d="M5.36793 339.143C5.21623 339.23 5.06947 339.325 4.92834 339.428C3.62585 340.435 2.53608 341.69 1.7221 343.121C0.908115 344.553 0.386099 346.131 0.186278 347.765C-0.552203 353.773 0.92048 359.844 4.32948 364.845C14.8839 380.21 47.9572 380.376 54.6318 377.413C58.7198 375.606 60.2063 369.556 60.733 364.79C61.4338 358.419 60.8561 347.721 56.3901 344.287C50.9409 340.105 13.4207 334.518 5.36793 339.143ZM8.85705 361.388C6.35256 357.677 5.23459 353.203 5.69923 348.75C5.78439 347.88 6.04235 347.034 6.45803 346.264C6.87371 345.494 7.43877 344.815 8.12016 344.265C9.35611 343.35 16.5701 342.539 30.6518 344.197C43.0878 345.663 51.6757 347.956 53.0943 349.046C54.4683 350.107 55.9994 356.646 55.1776 364.106C54.6148 369.203 53.2196 371.65 52.4614 371.979C47.1736 374.327 17.3452 373.748 8.85492 361.388H8.85705Z" fill="#251335"/>
<path d="M248.026 467.805C247.977 468.262 247.922 468.71 247.839 469.16C245.601 482.622 230.037 487.423 202.037 483.72C189.359 482.049 171.826 480.059 167.209 469.825C157.982 449.394 167.405 402.895 166.309 376.415V376.364C158.722 377.22 151.063 377.22 143.476 376.364C143.476 376.577 143.463 376.789 143.454 377.014C142.512 403.523 151.726 449.551 142.567 469.829C137.942 480.063 120.417 482.053 107.739 483.724C79.7075 487.43 64.1413 482.62 61.9242 469.114C61.8478 468.689 61.7841 468.251 61.7437 467.81C60.1276 451.364 82.7676 443.723 82.7676 443.723C82.7676 443.723 77.8238 403.651 74.5747 372.157C72.8396 353.736 72.6656 335.202 74.0544 316.752C74.6914 307.261 75.6492 297.905 76.7939 288.871C78.6372 274.356 80.988 260.658 83.3771 248.569C87.4672 227.969 91.6953 211.993 93.802 204.465C94.6684 201.384 95.1738 199.719 95.1738 199.719H214.581C214.581 199.719 215.08 201.345 215.919 204.355C217.998 211.775 222.201 227.579 226.276 248.016C228.71 260.225 231.101 274.105 232.974 288.835C234.118 297.854 235.068 307.195 235.72 316.677C237.104 335.153 236.93 353.713 235.199 372.159C231.94 403.651 227.013 443.726 227.013 443.726C227.013 443.726 249.642 451.352 248.026 467.805Z" fill="#F05B18"/>
<g opacity="0.35">
<path opacity="0.35" d="M115.049 364.179C127.402 366.249 139.884 367.456 152.406 367.789C168.685 367.789 194.742 364.179 194.742 364.179C182.92 372.589 168.657 376.873 154.158 376.371C128.589 375.806 115.049 364.179 115.049 364.179Z" fill="#251335"/>
</g>
<path d="M214.583 185.038H95.1824C94.4315 184.993 93.7261 184.663 93.2104 184.115C92.6947 183.568 92.4075 182.844 92.4075 182.092C92.4075 181.339 92.6947 180.615 93.2104 180.068C93.7261 179.52 94.4315 179.19 95.1824 179.145H214.583C215.334 179.19 216.039 179.52 216.555 180.068C217.071 180.615 217.358 181.339 217.358 182.092C217.358 182.844 217.071 183.568 216.555 184.115C216.039 184.663 215.334 184.993 214.583 185.038Z" fill="#251335"/>
<path d="M225.601 240.157C230.345 256.61 233.823 273.403 236.006 290.387C236.31 292.51 236.569 294.634 236.82 296.773C237.07 298.911 237.338 301.035 237.535 303.173L238.155 309.589C238.349 311.727 238.47 313.878 238.631 316.021L238.858 319.238L239.02 322.462C239.12 324.611 239.251 326.76 239.321 328.911C239.445 333.216 239.559 337.521 239.51 341.834C239.555 346.143 239.355 350.456 239.245 354.767C238.986 359.076 238.837 363.389 238.395 367.689C238.062 372.017 237.529 376.239 237.034 380.48L235.577 393.204L229.759 444.101L227.847 440.916C229.081 441.341 230.118 441.791 231.22 442.288C232.322 442.785 233.367 443.307 234.416 443.87C236.546 445.011 238.581 446.319 240.504 447.782C242.511 449.302 244.336 451.048 245.945 452.984C247.659 455.069 248.988 457.442 249.872 459.992C250.761 462.67 251.063 465.508 250.757 468.313C250.603 469.683 250.329 471.038 249.939 472.36C249.526 473.7 248.967 474.99 248.275 476.208C246.903 478.568 245.03 480.597 242.789 482.155C240.718 483.59 238.448 484.715 236.051 485.493C231.545 486.91 226.863 487.69 222.141 487.81C217.568 487.978 212.989 487.843 208.433 487.406C206.167 487.215 203.916 486.941 201.669 486.657L195.001 485.752C190.448 485.151 185.941 484.24 181.512 483.023C179.21 482.374 176.964 481.539 174.797 480.526C172.467 479.447 170.318 478.015 168.426 476.279C167.42 475.319 166.53 474.244 165.774 473.076C165.385 472.468 165.037 471.834 164.733 471.18L163.99 469.377C163.103 467.003 162.414 464.559 161.93 462.071C160.378 452.466 159.908 442.716 160.531 433.005C160.911 423.434 161.724 413.961 162.442 404.53C162.797 399.817 163.132 395.113 163.361 390.431C163.472 388.095 163.561 385.759 163.593 383.423C163.625 381.087 163.593 378.874 163.527 376.364L166.628 379.29C164.612 379.526 162.707 379.673 160.745 379.785C158.783 379.898 156.844 379.951 154.884 379.953C152.924 379.955 150.972 379.893 149.023 379.785C147.073 379.677 145.156 379.526 143.14 379.29L146.239 376.472C146.099 385.835 146.461 395.199 147.324 404.523C148.031 413.954 148.844 423.424 149.235 432.999C149.422 437.786 149.501 442.596 149.35 447.44C149.233 452.348 148.726 457.239 147.833 462.067C147.348 464.555 146.659 466.998 145.774 469.372L145.03 471.175C144.724 471.829 144.377 472.463 143.99 473.072C143.234 474.239 142.344 475.314 141.337 476.274C139.445 478.01 137.296 479.442 134.966 480.522C132.799 481.534 130.554 482.369 128.252 483.019C123.827 484.234 119.324 485.145 114.775 485.746L108.107 486.65C105.86 486.933 103.609 487.209 101.343 487.4C96.7877 487.837 92.2082 487.971 87.6351 487.801C82.9132 487.68 78.2314 486.901 73.7253 485.484C71.3281 484.707 69.0579 483.582 66.9871 482.146C64.7454 480.589 62.8729 478.56 61.5017 476.2C60.8098 474.981 60.2523 473.691 59.8389 472.352C59.4502 471.033 59.1766 469.683 59.0213 468.317C58.7179 465.51 59.0214 462.671 59.9111 459.992C60.7947 457.441 62.1258 455.068 63.842 452.984C65.4499 451.047 67.2763 449.302 69.2848 447.784C71.2073 446.321 73.2432 445.014 75.3732 443.874C76.4237 443.308 77.4855 442.78 78.5587 442.292C79.6587 441.797 80.695 441.355 81.931 440.92L80.0197 444.106L74.2031 393.378L72.7527 380.694C72.277 376.462 71.7418 372.261 71.4233 367.952C70.9986 363.665 70.8457 359.366 70.5972 355.072C70.508 350.776 70.3275 346.478 70.3848 342.186C70.353 337.89 70.4974 333.603 70.6163 329.313C70.68 327.168 70.8287 325.032 70.9094 322.889L71.0559 319.676L71.2683 316.469C71.814 307.915 72.5191 299.376 73.566 290.884C74.5344 282.389 75.9297 273.939 77.6009 265.572C79.2424 257.201 81.3854 248.936 84.0185 240.821C84.0878 240.588 84.247 240.392 84.4608 240.276C84.6746 240.16 84.9257 240.134 85.1589 240.203L85.2056 240.218C85.4065 240.3 85.5752 240.445 85.6863 240.631C85.7974 240.817 85.8449 241.035 85.8215 241.25C85.0145 249.764 83.8741 258.163 82.755 266.553C81.6358 274.944 80.4827 283.311 79.4336 291.695C77.182 308.433 76.0109 325.299 75.9275 342.188C75.8638 346.406 76.0443 350.615 76.1399 354.826C76.3841 359.025 76.5264 363.236 76.9468 367.415C77.2526 371.586 77.7963 375.822 78.2656 380.04L79.7139 392.701L85.5114 443.345L85.7875 445.764L83.6002 446.535C82.7189 446.847 81.6889 447.278 80.7269 447.709C79.7649 448.14 78.8008 448.625 77.86 449.126C75.9881 450.127 74.1987 451.275 72.5085 452.56C70.8533 453.809 69.347 455.244 68.0191 456.837C66.7576 458.36 65.7756 460.095 65.1183 461.961C64.5107 463.788 64.305 465.724 64.5152 467.637C64.6278 468.617 64.8232 469.585 65.0991 470.532C65.3815 471.434 65.7573 472.305 66.2204 473.129C68.3522 476.423 71.6189 478.82 75.4008 479.865C79.4364 481.12 83.6267 481.809 87.8517 481.91C92.1954 482.069 96.5449 481.94 100.872 481.524C103.053 481.341 105.234 481.074 107.412 480.8L114.015 479.906C118.328 479.339 122.598 478.479 126.795 477.332C130.779 476.37 134.489 474.507 137.64 471.887C138.305 471.249 138.895 470.536 139.398 469.763C139.634 469.387 139.847 468.996 140.035 468.593L140.632 467.14C141.391 465.092 141.982 462.986 142.399 460.842C143.845 451.719 144.276 442.465 143.684 433.247C143.312 423.874 142.507 414.462 141.796 405.003C140.915 395.449 140.547 385.855 140.696 376.262L140.804 373.094L143.792 373.444C145.568 373.656 147.466 373.801 149.314 373.905C151.161 374.009 153.032 374.062 154.886 374.066C156.74 374.07 158.6 374.011 160.458 373.905C162.317 373.799 164.204 373.652 165.98 373.444L168.972 373.094L169.076 376.379C169.15 378.604 169.193 381.155 169.142 383.533C169.108 385.948 169.017 388.348 168.904 390.741C168.668 395.523 168.331 400.274 167.974 405.01C167.26 414.475 166.456 423.889 166.084 433.254C165.483 442.471 165.91 451.726 167.358 460.848C167.772 462.993 168.363 465.1 169.125 467.147L169.72 468.599C169.906 469.003 170.119 469.394 170.357 469.77C170.858 470.543 171.448 471.256 172.115 471.893C175.266 474.514 178.976 476.376 182.96 477.338C187.156 478.485 191.425 479.345 195.738 479.912L202.341 480.806C204.522 481.08 206.702 481.348 208.881 481.532C213.208 481.948 217.557 482.078 221.901 481.921C226.126 481.82 230.316 481.132 234.352 479.878C238.133 478.833 241.4 476.437 243.533 473.144C244 472.323 244.376 471.452 244.654 470.549C244.928 469.603 245.123 468.635 245.238 467.657C245.447 465.742 245.241 463.804 244.635 461.976C243.978 460.11 242.998 458.374 241.738 456.849C240.409 455.258 238.903 453.823 237.249 452.572C235.558 451.289 233.769 450.14 231.897 449.139C230.956 448.635 230.001 448.16 229.032 447.722C228.064 447.285 227.043 446.858 226.159 446.548L223.972 445.777L224.248 443.358L230.077 392.535L231.53 379.832C232.001 375.597 232.513 371.35 232.804 367.164C233.214 362.972 233.335 358.744 233.566 354.535C233.626 350.311 233.779 346.09 233.689 341.859C233.645 333.405 233.28 324.943 232.694 316.497C232.107 308.051 231.317 299.61 230.389 291.181C228.51 274.322 226 257.543 223.806 240.598C223.766 240.347 223.827 240.089 223.974 239.881C224.121 239.673 224.343 239.53 224.594 239.483C224.815 239.454 225.039 239.506 225.225 239.63C225.41 239.754 225.544 239.941 225.601 240.157Z" fill="#251335"/>
<g opacity="0.35">
<path opacity="0.35" d="M142.548 469.825C137.925 480.059 120.4 482.046 107.72 483.724C79.6885 487.428 64.1223 482.616 61.9031 469.111C84.8573 478.356 125.317 473.078 132.235 461.345C141.193 446.155 142.641 430.977 128.712 412.05C114.784 393.122 113.707 363.272 113.707 363.272C120.364 368.241 134.06 373.642 143.438 377.012C142.51 403.519 151.718 449.546 142.548 469.825Z" fill="#251335"/>
</g>
<g opacity="0.35">
<path opacity="0.35" d="M247.841 469.16C245.601 482.624 230.043 487.423 202.041 483.724C189.357 482.046 171.826 480.059 167.214 469.825C157.986 449.396 167.407 402.897 166.313 376.413C174.073 373.952 188.439 368.917 196.006 363.274C196.006 363.274 199.828 386.194 183.591 410.47C170.499 430.058 169.545 445.645 178.494 460.825C184.844 471.6 222.608 476.024 247.841 469.16Z" fill="#251335"/>
</g>
<path d="M203.748 423.385C193.98 423.385 181.281 421.425 164.954 415.764C164.412 415.557 163.971 415.151 163.721 414.628C163.47 414.105 163.431 413.506 163.61 412.954C163.681 412.691 163.804 412.444 163.971 412.229C164.137 412.013 164.345 411.832 164.582 411.697C164.818 411.562 165.08 411.474 165.35 411.44C165.621 411.406 165.895 411.425 166.158 411.497L166.26 411.527C215.123 428.465 229.421 410.839 229.559 410.659C229.878 410.228 230.354 409.942 230.883 409.862C231.413 409.782 231.952 409.916 232.383 410.234C232.424 410.264 232.462 410.295 232.5 410.327C232.935 410.709 233.212 411.24 233.275 411.816C233.338 412.391 233.182 412.969 232.84 413.436C232.407 414.01 225.097 423.385 203.748 423.385Z" fill="#251335"/>
<path d="M103.859 424.645C93.647 424.645 83.8485 422.702 77.5711 416.821C77.1531 416.415 76.9022 415.867 76.8676 415.285C76.8331 414.703 77.0173 414.129 77.3842 413.676C77.717 413.261 78.2011 412.994 78.7303 412.935C79.2595 412.876 79.7905 413.03 80.2065 413.362C80.2532 413.398 80.2978 413.438 80.3424 413.479C96.6944 428.796 143.459 413.186 143.93 413.029C144.454 412.862 145.024 412.91 145.512 413.163C146.001 413.416 146.369 413.853 146.536 414.377L146.566 414.475C146.741 415.027 146.698 415.626 146.445 416.147C146.191 416.669 145.747 417.073 145.204 417.276C143.894 417.718 123.142 424.645 103.859 424.645Z" fill="#251335"/>
<path d="M143.021 379.278C141.606 379.046 140.204 378.741 138.821 378.362C137.466 377.989 136.122 377.579 134.801 377.112C132.143 376.192 129.551 375.092 127.043 373.82C125.769 373.204 124.541 372.518 123.318 371.824C122.116 371.07 120.895 370.373 119.731 369.56C117.251 368.024 115.151 365.946 113.588 363.482C113.551 363.424 113.538 363.353 113.552 363.285C113.565 363.217 113.604 363.157 113.66 363.117C113.686 363.099 113.716 363.086 113.748 363.08C113.779 363.073 113.811 363.073 113.843 363.079C116.512 363.729 119.095 364.692 121.539 365.948C123.945 367.097 126.41 368.084 128.891 369.006C130.131 369.469 131.384 369.883 132.628 370.32L136.398 371.493C137.672 371.854 138.921 372.217 140.184 372.554C141.448 372.892 142.749 373.211 143.903 373.47L144.002 373.491C144.741 373.683 145.377 374.155 145.775 374.806C146.174 375.457 146.305 376.237 146.141 376.982C146.017 377.693 145.623 378.328 145.042 378.756C144.461 379.184 143.737 379.371 143.021 379.278Z" fill="#251335"/>
<path d="M165.799 373.461C166.952 373.2 168.271 372.868 169.516 372.546C170.76 372.223 172.041 371.853 173.302 371.484L177.071 370.312C178.314 369.874 179.569 369.462 180.809 368.997C183.287 368.076 185.755 367.086 188.161 365.939C190.605 364.683 193.188 363.72 195.857 363.07C195.89 363.065 195.924 363.066 195.956 363.074C195.989 363.082 196.019 363.096 196.046 363.115C196.073 363.135 196.096 363.16 196.113 363.189C196.13 363.218 196.141 363.249 196.146 363.282C196.159 363.35 196.146 363.42 196.11 363.478C194.547 365.942 192.447 368.019 189.966 369.556C188.802 370.369 187.581 371.068 186.379 371.819C185.154 372.514 183.918 373.2 182.654 373.816C180.146 375.088 177.554 376.187 174.897 377.107C173.574 377.577 172.23 377.984 170.875 378.358C169.491 378.736 168.089 379.042 166.674 379.273C166.309 379.321 165.939 379.296 165.583 379.2C165.228 379.105 164.895 378.94 164.604 378.715C164.313 378.49 164.068 378.21 163.885 377.891C163.702 377.572 163.584 377.22 163.538 376.855V376.804C163.42 376.081 163.576 375.34 163.976 374.726C164.375 374.113 164.989 373.67 165.697 373.484L165.799 373.461Z" fill="#251335"/>
<path d="M82.2814 440.814C84.0391 440.443 85.8177 440.179 87.6075 440.024C89.368 439.839 91.1348 439.776 92.9017 439.742C96.444 439.714 99.983 439.965 103.486 440.493C107.018 441.046 110.478 441.992 113.8 443.314C117.145 444.709 120.197 446.721 122.798 449.245C119.557 448.194 116.25 447.354 112.9 446.733C109.625 446.207 106.324 445.852 103.012 445.671C99.6966 445.556 96.3816 445.591 93.0673 445.775C91.4109 445.843 89.7545 445.987 88.1023 446.121C86.4501 446.255 84.7639 446.437 83.2179 446.618L83.116 446.631C82.7474 446.663 82.3759 446.623 82.0229 446.511C81.6699 446.4 81.3423 446.22 81.0587 445.983C80.7751 445.745 80.5412 445.453 80.3702 445.125C80.1992 444.797 80.0946 444.438 80.0623 444.07V444.031C79.9744 443.316 80.1518 442.594 80.5608 442.001C80.9697 441.408 81.5819 440.986 82.2814 440.814Z" fill="#251335"/>
<path d="M226.539 446.622C225.002 446.439 223.298 446.267 221.655 446.125C220.011 445.983 218.348 445.847 216.69 445.779C213.374 445.596 210.059 445.562 206.745 445.675C203.433 445.858 200.133 446.212 196.857 446.737C193.507 447.359 190.2 448.198 186.959 449.249C189.559 446.724 192.611 444.712 195.957 443.318C199.279 441.996 202.739 441.05 206.271 440.498C209.774 439.967 213.314 439.716 216.858 439.746C218.624 439.78 220.389 439.839 222.152 440.028C223.942 440.183 225.72 440.447 227.478 440.818C228.219 440.998 228.862 441.459 229.271 442.103C229.679 442.748 229.821 443.526 229.667 444.273C229.558 444.975 229.186 445.61 228.626 446.047C228.067 446.485 227.361 446.694 226.654 446.631L226.539 446.622Z" fill="#251335"/>
<path d="M207.021 278.346L225.877 278.673C225.877 278.673 203.012 228.105 251.239 189.789L233.401 178.506C233.401 178.506 185.549 215.245 205.345 278.346H207.021Z" fill="#AC311B" stroke="#251335" stroke-width="2" stroke-linecap="round" stroke-linejoin="round"/>
<path d="M88.2191 177.457L70.3806 183.598C70.3806 183.598 109.164 223.297 76.949 275.798L97.5779 280.298C97.5779 280.298 129.974 229.399 89.7927 176.877L88.2191 177.457Z" fill="#AC311B" stroke="#251335" stroke-width="2" stroke-linecap="round" stroke-linejoin="round"/>
<path d="M100.434 202.916L88.5287 206.772C86.9984 207.268 86.1596 208.91 86.6552 210.44L89.7169 219.894C90.2126 221.424 91.8549 222.263 93.3852 221.767L105.291 217.912C106.821 217.416 107.66 215.774 107.164 214.243L104.102 204.79C103.607 203.259 101.964 202.421 100.434 202.916Z" fill="#302F2F"/>
<path d="M100.107 201.907L88.2015 205.762C86.1135 206.439 84.9691 208.679 85.6453 210.767L88.7071 220.221C89.3833 222.309 91.6241 223.453 93.7121 222.777L105.617 218.921C107.705 218.245 108.85 216.004 108.174 213.916L105.112 204.463C104.436 202.375 102.195 201.23 100.107 201.907Z" stroke="#251335" stroke-width="0.999632" stroke-linecap="round" stroke-linejoin="round"/>
<path d="M228.731 208.296L216.875 202.18C215.445 201.442 213.688 202.004 212.95 203.434L208.393 212.268C207.655 213.698 208.216 215.456 209.647 216.193L221.503 222.309C222.933 223.047 224.69 222.486 225.428 221.056L229.985 212.221C230.723 210.791 230.161 209.034 228.731 208.296Z" fill="#302F2F"/>
<path d="M229.218 207.352L217.362 201.236C215.411 200.23 213.013 200.996 212.007 202.947L207.449 211.781C206.443 213.733 207.209 216.13 209.16 217.137L221.016 223.253C222.967 224.259 225.365 223.494 226.371 221.542L230.929 212.708C231.935 210.757 231.169 208.359 229.218 207.352Z" stroke="#251335" stroke-linecap="round" stroke-linejoin="round"/>
<path d="M163.527 210.791H150.62V376.364H163.527V210.791Z" fill="#F7F8F8" stroke="#251335" stroke-miterlimit="10"/>
<g opacity="0.35">
<path opacity="0.35" d="M154.37 300.517C155.071 301.659 155.755 302.78 156.409 303.883C155.755 302.78 155.073 301.648 154.37 300.517Z" fill="#251335"/>
</g>
<g opacity="0.35">
<path opacity="0.35" d="M235.715 316.673C230.581 317.232 225.42 317.497 220.255 317.467C219.777 317.467 219.306 317.467 218.822 317.446C218.338 317.425 217.824 317.431 217.335 317.401C216.989 317.401 216.656 317.38 216.331 317.363C215.927 317.342 215.541 317.312 215.146 317.297C214.655 317.268 214.148 317.225 213.659 317.181H213.617C213.126 317.151 212.631 317.1 212.13 317.049C211.799 317.011 211.478 316.983 211.153 316.938C210.884 316.917 210.606 316.873 210.336 316.849C209.911 316.79 209.476 316.739 209.074 316.673C208.673 316.607 208.284 316.548 207.889 316.473C207.813 316.469 207.737 316.459 207.662 316.444C207.212 316.372 206.761 316.288 206.309 316.193C205.857 316.098 205.422 316.017 204.986 315.913L204.882 315.892L204.154 315.715C203.884 315.656 203.615 315.59 203.343 315.503C203.196 315.458 203.052 315.431 202.918 315.378V321.162C203.018 324.905 201.636 328.535 199.071 331.262C196.507 333.989 192.968 335.592 189.227 335.722H114.475C110.738 335.588 107.205 333.985 104.643 331.26C102.082 328.535 100.7 324.909 100.797 321.171V316.55C91.9296 317.731 82.9491 317.798 74.0649 316.749C74.702 307.259 75.6598 297.902 76.8044 288.868C84.8054 289.193 92.8186 289.041 100.801 288.412V278.046C100.701 274.306 102.083 270.678 104.647 267.952C107.21 265.227 110.747 263.625 114.486 263.495H189.214C191.359 263.521 193.468 264.058 195.364 265.061C197.26 266.064 198.891 267.504 200.119 269.263C201.942 271.828 202.916 274.9 202.905 278.046V287.766C204.494 288.008 206.157 288.216 207.877 288.378C216.229 289.058 224.615 289.21 232.986 288.834C234.114 297.849 235.063 307.193 235.715 316.673Z" fill="#251335"/>
</g>
<path d="M114.83 301.145C104.448 305.605 88.3806 304.679 77.4248 303.269C75.8193 303.006 74.2814 302.43 72.8988 301.572C71.5163 300.715 70.3162 299.593 69.3672 298.272C68.4182 296.951 67.7389 295.455 67.368 293.871C66.9972 292.287 66.9421 290.646 67.2059 289.041V289.017C67.5325 286.038 68.9641 283.29 71.2181 281.315C73.4721 279.34 76.3847 278.282 79.3806 278.35C89.6271 278.86 104.996 279.1 114.728 276.804" fill="#EB3C22"/>
<g opacity="0.35">
<path opacity="0.35" d="M114.83 301.143C104.452 305.615 88.3826 304.679 77.429 303.267C75.823 303.005 74.2845 302.429 72.9013 301.572C71.5181 300.715 70.3174 299.593 69.368 298.272C68.4185 296.95 67.7388 295.455 67.3678 293.87C66.9968 292.286 66.9418 290.644 67.2059 289.038V289.015C67.4167 287.457 67.9127 285.951 68.669 284.573C69.5344 286.219 70.7804 287.634 72.3033 288.702C73.8263 289.769 75.5821 290.458 77.4247 290.71C88.3635 292.116 104.395 293.046 114.777 288.61L114.83 301.143Z" fill="#251335"/>
</g>
<path d="M94.1864 307.382C88.4688 307.346 82.7591 306.951 77.0912 306.197C75.1339 305.938 73.252 305.275 71.5651 304.249C69.8782 303.223 68.4233 301.857 67.2928 300.238C64.8865 296.865 63.8761 292.693 64.4727 288.592C64.8658 284.907 66.632 281.504 69.42 279.062C72.2079 276.619 75.8133 275.316 79.5186 275.411C94.609 276.161 106.913 275.638 114.134 273.924C115.59 273.58 119.209 273.568 121.341 280.858C123.509 288.265 123.252 300.697 115.864 303.883C108.935 306.449 101.571 307.638 94.1864 307.382ZM78.8241 281.291C76.6073 281.347 74.4861 282.205 72.8546 283.707C71.2231 285.209 70.1923 287.252 69.9537 289.457C69.5826 291.993 70.2057 294.575 71.693 296.662C72.3914 297.663 73.2907 298.507 74.3334 299.141C75.3762 299.775 76.5396 300.185 77.7496 300.345C93.4113 302.36 106.206 301.672 113.781 298.414C116.017 297.452 116.665 293.602 116.839 291.992C117.4 287.82 116.695 283.574 114.815 279.807C104.94 282.011 90.0708 281.841 79.2446 281.293L78.8241 281.291Z" fill="#251335"/>
<path d="M231.649 303.271C225.784 304.054 219.873 304.441 213.957 304.428C213.532 304.428 213.107 304.428 212.666 304.407C212.224 304.386 211.755 304.386 211.302 304.367C210.994 304.367 210.693 304.345 210.398 304.331L209.336 304.269C208.883 304.241 208.431 304.207 207.985 304.171H207.951C207.505 304.135 207.053 304.095 206.607 304.046C206.312 304.018 206.017 303.984 205.728 303.948C205.479 303.927 205.229 303.893 204.987 303.865C204.6 303.817 204.214 303.759 203.84 303.704C203.466 303.649 203.126 303.592 202.778 303.53C202.706 303.527 202.635 303.514 202.566 303.494C202.154 303.432 201.746 303.356 201.347 303.281C200.947 303.207 200.54 303.12 200.147 303.031L200.047 303.01C199.835 302.954 199.601 302.904 199.384 302.848C199.168 302.793 198.9 302.731 198.656 302.659C197.915 302.464 197.189 302.235 196.481 302.005C196.101 301.88 195.721 301.74 195.347 301.6C194.974 301.459 194.606 301.306 194.252 301.154L194.296 289.474L194.347 276.823C197.116 277.448 199.923 277.883 202.75 278.127C211.715 278.821 220.717 278.903 229.693 278.371C229.876 278.371 230.06 278.356 230.249 278.356C233.148 278.435 235.921 279.559 238.056 281.522C240.19 283.485 241.543 286.154 241.863 289.036C242.397 292.275 241.623 295.592 239.712 298.26C237.801 300.928 234.908 302.728 231.67 303.264L231.649 303.271Z" fill="#EB3C22"/>
<g opacity="0.35">
<path opacity="0.35" d="M231.651 303.265C225.787 304.05 219.876 304.437 213.959 304.422C213.524 304.422 213.109 304.422 212.661 304.401C212.213 304.38 211.755 304.386 211.302 304.363C210.99 304.363 210.693 304.341 210.395 304.324C210.034 304.303 209.682 304.28 209.334 304.265C208.883 304.235 208.427 304.199 207.981 304.161H207.945C207.503 304.131 207.051 304.089 206.607 304.036C206.308 304.006 206.019 303.976 205.726 303.94C205.475 303.919 205.227 303.88 204.984 303.859C204.598 303.808 204.207 303.755 203.84 303.698C203.472 303.641 203.126 303.587 202.778 303.522C202.707 303.517 202.636 303.507 202.566 303.492C202.156 303.426 201.748 303.352 201.345 303.265C200.941 303.178 200.542 303.11 200.145 303.014L200.047 302.993L199.389 302.838C199.144 302.778 198.905 302.721 198.66 302.647C197.919 302.456 197.191 302.222 196.484 301.99C196.103 301.865 195.721 301.725 195.347 301.585C194.974 301.445 194.606 301.298 194.252 301.143L194.301 289.463V288.614C194.64 288.762 194.986 288.907 195.347 289.038C195.708 289.17 196.103 289.319 196.484 289.444C197.191 289.68 197.919 289.901 198.66 290.1C198.905 290.166 199.144 290.232 199.389 290.283C199.633 290.334 199.824 290.387 200.047 290.444L200.145 290.466C200.54 290.555 200.941 290.635 201.345 290.716C201.748 290.797 202.156 290.871 202.566 290.928C202.635 290.95 202.706 290.963 202.778 290.967C203.133 291.026 203.485 291.084 203.84 291.137C204.194 291.19 204.596 291.247 204.984 291.298C205.229 291.328 205.477 291.364 205.726 291.379C206.017 291.417 206.308 291.451 206.607 291.483C207.051 291.527 207.501 291.572 207.945 291.608H207.987L209.34 291.704C209.695 291.725 210.047 291.748 210.402 291.763C210.701 291.778 210.999 291.793 211.309 291.801C211.759 291.823 212.215 291.84 212.668 291.846C213.12 291.852 213.517 291.867 213.965 291.867C219.882 291.88 225.793 291.493 231.657 290.71C233.499 290.452 235.253 289.76 236.775 288.692C238.298 287.623 239.544 286.208 240.413 284.564C241.164 285.944 241.658 287.45 241.87 289.007C242.138 290.61 242.087 292.251 241.721 293.834C241.355 295.418 240.68 296.915 239.736 298.238C238.792 299.561 237.596 300.685 236.217 301.546C234.838 302.407 233.303 302.988 231.7 303.256L231.651 303.265Z" fill="#251335"/>
</g>
<path d="M214.889 307.382C207.502 307.639 200.136 306.45 193.205 303.882C185.812 300.697 185.56 288.27 187.734 280.871C189.858 273.583 193.485 273.593 194.942 273.937C202.175 275.636 214.479 276.167 229.557 275.424C233.262 275.324 236.868 276.624 239.657 279.064C242.447 281.504 244.215 284.905 244.609 288.59C245.204 292.691 244.191 296.863 241.782 300.234C240.652 301.853 239.197 303.218 237.51 304.244C235.823 305.27 233.941 305.934 231.984 306.193C226.316 306.949 220.607 307.346 214.889 307.382ZM195.286 298.416C202.859 301.674 215.656 302.36 231.319 300.347C232.529 300.185 233.692 299.774 234.735 299.14C235.777 298.506 236.677 297.662 237.376 296.662C238.866 294.575 239.492 291.993 239.124 289.455C238.879 287.176 237.787 285.073 236.064 283.562C234.341 282.052 232.113 281.244 229.822 281.3C218.992 281.839 204.126 282.009 194.252 279.813C192.374 283.578 191.67 287.82 192.23 291.99C192.404 293.6 193.052 297.45 195.288 298.412L195.286 298.416Z" fill="#251335"/>
<path d="M198.257 268.768V307.767C198.348 311.151 197.098 314.434 194.778 316.9C192.459 319.367 189.259 320.816 185.876 320.933H118.3C114.918 320.815 111.719 319.365 109.402 316.899C107.084 314.432 105.836 311.15 105.928 307.767V268.768C105.838 265.388 107.089 262.109 109.406 259.646C111.723 257.183 114.92 255.735 118.3 255.619H185.878C187.817 255.64 189.724 256.124 191.438 257.03C193.153 257.937 194.625 259.241 195.734 260.832C197.383 263.149 198.265 265.925 198.257 268.768Z" fill="#EB3C22"/>
<g opacity="0.35">
<path opacity="0.35" d="M198.257 268.77V307.771C198.346 311.154 197.094 314.434 194.775 316.898C192.455 319.362 189.256 320.809 185.874 320.925H118.3C114.921 320.809 111.724 319.362 109.406 316.899C107.089 314.437 105.84 311.158 105.93 307.777V293.182C113.178 308.14 137.768 314.016 158.006 311.846C159.041 311.707 160.039 311.364 160.942 310.839C161.846 310.314 162.637 309.616 163.27 308.785C163.904 307.954 164.367 307.006 164.634 305.996C164.901 304.986 164.967 303.933 164.827 302.897C164.792 302.631 164.743 302.366 164.68 302.105C164.349 300.655 164.183 299.171 164.185 297.684C164.185 289.176 169.495 282.279 176.031 282.279C182.355 282.279 187.535 288.73 187.87 296.853C195.98 285.587 196.418 270.52 195.728 260.832C197.379 263.149 198.264 265.925 198.257 268.77Z" fill="#251335"/>
</g>
<path d="M185.171 323.872H119.016C114.68 323.731 110.577 321.878 107.605 318.719C104.632 315.559 103.033 311.351 103.157 307.015V269.524C103.034 265.188 104.633 260.98 107.605 257.821C110.578 254.662 114.68 252.808 119.016 252.667H185.171C189.506 252.809 193.609 254.662 196.581 257.822C199.553 260.981 201.153 265.189 201.03 269.524V307.015C201.153 311.351 199.554 315.559 196.581 318.718C193.609 321.878 189.506 323.731 185.171 323.872ZM119.016 258.562C116.196 258.653 113.527 259.858 111.594 261.912C109.661 263.967 108.621 266.704 108.701 269.524V307.015C108.62 309.835 109.66 312.572 111.594 314.627C113.527 316.682 116.196 317.887 119.016 317.977H185.171C187.991 317.886 190.659 316.681 192.593 314.627C194.526 312.572 195.566 309.835 195.485 307.015V269.524C195.566 266.704 194.525 263.968 192.592 261.913C190.659 259.859 187.991 258.654 185.171 258.562H119.016Z" fill="#251335"/>
<path d="M168.484 280.251C170.316 278.25 172.868 277.059 175.578 276.94C178.289 276.82 180.936 277.782 182.937 279.614C183.149 279.826 183.362 280.038 183.574 280.251C185.584 282.438 186.699 285.3 186.699 288.27C186.699 291.24 185.584 294.101 183.574 296.288C182.667 297.279 181.573 298.082 180.356 298.65C179.139 299.218 177.822 299.541 176.479 299.601C175.137 299.66 173.797 299.454 172.534 298.995C171.271 298.536 170.112 297.833 169.121 296.926C168.908 296.713 168.685 296.501 168.484 296.288C166.475 294.101 165.361 291.239 165.361 288.27C165.361 285.3 166.475 282.438 168.484 280.251Z" fill="#1D94D5"/>
<path d="M186.706 288.27C186.709 288.875 186.662 289.479 186.566 290.077C186.309 287.462 185.088 285.036 183.14 283.271C181.193 281.506 178.659 280.528 176.031 280.528C173.403 280.528 170.869 281.506 168.922 283.271C166.974 285.036 165.753 287.462 165.496 290.077C165.4 289.479 165.353 288.875 165.355 288.27C165.188 285.442 166.148 282.664 168.027 280.544C169.905 278.424 172.548 277.135 175.375 276.962C178.202 276.788 180.983 277.743 183.107 279.617C185.231 281.491 186.525 284.131 186.704 286.957C186.73 287.394 186.73 287.833 186.704 288.27H186.706Z" fill="white"/>
<g opacity="0.35">
<path opacity="0.35" d="M186.7 288.27C186.787 289.725 186.576 291.182 186.079 292.552C185.582 293.922 184.811 295.176 183.811 296.237C182.812 297.298 181.606 298.143 180.268 298.721C178.93 299.299 177.488 299.597 176.031 299.597C174.574 299.597 173.132 299.299 171.794 298.721C170.456 298.143 169.25 297.298 168.251 296.237C167.251 295.176 166.48 293.922 165.983 292.552C165.486 291.182 165.275 289.725 165.362 288.27C165.358 286.869 165.606 285.48 166.092 284.167C166.773 286.267 168.101 288.097 169.886 289.396C171.672 290.694 173.822 291.393 176.03 291.393C178.237 291.393 180.388 290.694 182.173 289.396C183.959 288.097 185.287 286.267 185.967 284.167C186.454 285.48 186.702 286.869 186.7 288.27Z" fill="#251335"/>
</g>
<path d="M176.033 301.821C173.284 301.985 170.55 301.309 168.193 299.883C165.837 298.457 163.97 296.348 162.841 293.836C161.711 291.324 161.372 288.528 161.869 285.819C162.366 283.11 163.675 280.616 165.623 278.669C167.57 276.721 170.064 275.412 172.773 274.915C175.482 274.418 178.278 274.757 180.79 275.886C183.302 277.016 185.411 278.883 186.838 281.239C188.264 283.595 188.939 286.33 188.775 289.079C188.577 292.394 187.171 295.521 184.823 297.869C182.475 300.217 179.348 301.623 176.033 301.821ZM176.033 279.136C174.227 279.026 172.429 279.453 170.866 280.365C169.303 281.276 168.045 282.631 167.252 284.257C166.459 285.883 166.166 287.708 166.41 289.501C166.654 291.294 167.424 292.974 168.623 294.33C169.822 295.685 171.396 296.654 173.145 297.115C174.895 297.575 176.742 297.507 178.453 296.918C180.164 296.329 181.662 295.245 182.757 293.805C183.852 292.365 184.496 290.632 184.606 288.826C184.617 288.641 184.623 288.454 184.623 288.268C184.69 285.919 183.824 283.639 182.214 281.928C180.604 280.216 178.382 279.213 176.033 279.136Z" fill="#251335"/>
<path d="M145.793 323.872C145.417 323.861 145.047 323.776 144.704 323.622C144.362 323.467 144.053 323.247 143.795 322.973C143.537 322.699 143.336 322.378 143.203 322.026C143.07 321.675 143.008 321.3 143.019 320.925V299.778C143.027 298.187 142.681 296.615 142.005 295.175C141.329 293.735 140.341 292.465 139.112 291.455L135.614 288.656C133.691 287.076 132.145 285.086 131.087 282.833C130.029 280.58 129.487 278.119 129.5 275.63V255.615C129.476 255.249 129.523 254.883 129.641 254.536C129.759 254.189 129.944 253.869 130.185 253.594C130.427 253.319 130.72 253.095 131.049 252.934C131.378 252.773 131.735 252.678 132.101 252.656C132.466 252.633 132.832 252.683 133.178 252.803C133.524 252.922 133.843 253.109 134.117 253.352C134.391 253.595 134.613 253.89 134.773 254.22C134.932 254.549 135.025 254.907 135.045 255.273C135.051 255.387 135.051 255.501 135.045 255.615V275.636C135.036 277.225 135.382 278.796 136.058 280.235C136.733 281.674 137.72 282.944 138.948 283.952L142.446 286.751C144.368 288.332 145.914 290.322 146.972 292.575C148.029 294.828 148.572 297.289 148.56 299.778V320.925C148.582 321.682 148.303 322.417 147.785 322.97C147.266 323.522 146.55 323.847 145.793 323.872Z" fill="#251335"/>
<path d="M117.695 182.693C117.695 182.693 106.82 167.365 90.228 182.693H117.695Z" fill="white"/>
<path d="M117.699 185.65C117.265 185.647 116.838 185.539 116.454 185.337C116.069 185.135 115.739 184.844 115.491 184.488C113.144 181.484 109.742 179.486 105.975 178.903C101.562 178.433 96.8813 180.464 92.05 184.925C91.5351 185.409 90.8492 185.668 90.1433 185.646C89.4373 185.624 88.7688 185.323 88.2848 184.809C88.2339 184.753 88.1829 184.694 88.1362 184.634C87.6525 184.033 87.4122 183.272 87.463 182.502C87.5137 181.732 87.8517 181.009 88.4101 180.476C94.4731 174.876 100.6 172.375 106.616 173.044C111.91 173.826 116.685 176.656 119.912 180.924C120.355 181.555 120.545 182.33 120.444 183.094C120.343 183.858 119.958 184.557 119.366 185.051C118.897 185.437 118.307 185.649 117.699 185.65Z" fill="#251335"/>
<path d="M251.622 132.039C251.354 132.052 251.087 132.013 250.835 131.923C250.583 131.833 250.351 131.694 250.153 131.515C249.955 131.336 249.794 131.119 249.679 130.877C249.564 130.635 249.499 130.373 249.485 130.106V130.083L245.206 69.1963C245.153 68.6522 245.316 68.1091 245.66 67.6843C246.004 67.2595 246.502 66.9872 247.045 66.9261C258.568 66.0109 268.606 75.1976 269.469 87.4446L270.927 108.207C271.788 120.452 263.153 131.121 251.622 132.039Z" fill="white"/>
<path d="M251.471 132.572C250.869 132.572 250.289 132.344 249.848 131.935C249.342 131.463 249.038 130.814 248.999 130.123L244.711 69.2346C244.657 68.5399 244.87 67.8507 245.308 67.3085C245.514 67.0482 245.771 66.833 246.063 66.6759C246.355 66.5189 246.676 66.4233 247.007 66.3953C258.778 65.4482 269.093 74.8898 269.963 87.4022L271.422 108.165C272.304 120.682 263.435 131.629 251.658 132.563C251.596 132.57 251.533 132.573 251.471 132.572ZM248.619 67.3913C248.109 67.3913 247.597 67.4118 247.083 67.4528C246.884 67.4696 246.691 67.5271 246.515 67.6217C246.338 67.7163 246.184 67.8461 246.06 68.0029C245.797 68.3281 245.669 68.7414 245.701 69.1581L249.98 130.043C249.988 130.243 250.035 130.44 250.119 130.623C250.202 130.805 250.321 130.969 250.469 131.106C250.616 131.242 250.789 131.348 250.977 131.418C251.165 131.488 251.366 131.52 251.566 131.512H251.583C262.815 130.62 271.267 120.185 270.428 108.248L268.969 87.485C268.742 82.1849 266.517 77.1671 262.742 73.4398C258.967 69.7125 253.921 67.5516 248.619 67.3913Z" fill="#251335"/>
<g opacity="0.35">
<path opacity="0.35" d="M270.243 98.4705L270.929 108.207C271.779 120.45 263.144 131.121 251.621 132.041C251.353 132.054 251.085 132.014 250.833 131.923C250.58 131.833 250.348 131.693 250.149 131.513C249.95 131.332 249.789 131.114 249.675 130.872C249.561 130.629 249.495 130.366 249.483 130.098V130.081L248.34 113.897C248.511 114.249 248.782 114.542 249.12 114.74C249.457 114.938 249.846 115.031 250.237 115.007L251.596 114.895C256.032 114.454 260.219 112.632 263.565 109.685C266.91 106.739 269.246 102.816 270.243 98.4705Z" fill="#251335"/>
</g>
<path d="M251.466 134.995C250.314 134.994 249.205 134.555 248.364 133.767C247.391 132.868 246.802 131.628 246.72 130.306L242.441 69.4214C242.34 68.0933 242.748 66.7767 243.583 65.7391C243.978 65.2409 244.471 64.8288 245.031 64.5283C245.592 64.2277 246.208 64.045 246.841 63.9913C249.973 63.7478 253.122 64.1579 256.087 65.1958C259.052 66.2337 261.769 67.8766 264.066 70.0203C268.899 74.4906 271.824 80.651 272.233 87.2217L273.692 107.984C274.665 121.832 264.856 133.939 251.819 134.974C251.702 134.988 251.584 134.995 251.466 134.995ZM251.417 129.102L248.02 69.8227L252.18 129.023C256.764 128.433 260.936 126.075 263.807 122.453C266.982 118.502 268.535 113.491 268.152 108.437L266.693 87.674C266.492 82.8635 264.436 78.3176 260.957 74.9896C257.478 71.6615 252.845 69.8098 248.03 69.8227L251.417 129.102Z" fill="#251335"/>
<path d="M57.9595 81.9381C58.2266 81.9247 58.4937 81.964 58.7455 82.0539C58.9974 82.1437 59.229 82.2824 59.4273 82.4619C59.6255 82.6414 59.7864 82.8582 59.9007 83.0999C60.0151 83.3417 60.0807 83.6035 60.0937 83.8706V83.894L64.3728 144.778C64.4259 145.322 64.2627 145.866 63.9186 146.29C63.5745 146.715 63.0771 146.988 62.5338 147.049C51.011 147.964 40.9726 138.766 40.1104 126.53L38.6515 105.767C37.7936 93.5225 46.4367 82.8513 57.9595 81.9381Z" fill="white"/>
<path d="M60.9622 147.643C55.4008 147.476 50.1086 145.211 46.1488 141.302C42.189 137.393 39.8549 132.131 39.6155 126.572L38.1566 105.808C37.2753 93.2909 46.1435 82.3436 57.9211 81.4092C58.2554 81.3918 58.5898 81.4403 58.9053 81.5521C59.2208 81.6639 59.5111 81.8367 59.7598 82.0608C60.0085 82.2848 60.2106 82.5556 60.3546 82.8577C60.4986 83.1598 60.5816 83.4874 60.599 83.8216V83.8556L64.8781 144.74C64.9438 145.42 64.7395 146.099 64.3093 146.63C63.8791 147.161 63.2574 147.502 62.5783 147.579C62.0318 147.622 61.4931 147.643 60.9622 147.643ZM57.9891 82.4668C46.7573 83.3587 38.3052 93.7942 39.1441 105.731L40.603 126.494C41.4524 138.431 51.2636 147.409 62.4912 146.524C62.8977 146.477 63.2698 146.273 63.5278 145.956C63.7858 145.638 63.9092 145.232 63.8715 144.825L59.6009 83.9342C59.586 83.5301 59.4112 83.1484 59.1149 82.8732C58.8186 82.5981 58.4251 82.4519 58.021 82.4668H57.9891Z" fill="#251335"/>
<g opacity="0.35">
<path opacity="0.35" d="M63.1942 127.887L64.3791 144.778C64.431 145.323 64.2667 145.867 63.9215 146.292C63.5763 146.717 63.0779 146.989 62.5337 147.051C59.6284 147.27 56.71 146.856 53.98 145.838C51.25 144.82 48.7735 143.221 46.7212 141.153C42.8172 137.248 40.4687 132.055 40.1146 126.545L39.4988 117.795C41.3068 121.472 44.1661 124.529 47.7141 126.578C51.262 128.627 55.3386 129.577 59.4268 129.305L61.5165 129.14C61.8836 129.103 62.2337 128.967 62.5293 128.746C62.8249 128.526 63.0548 128.228 63.1942 127.887Z" fill="#251335"/>
</g>
<path d="M60.9624 150.058C48.692 150.058 38.2799 139.962 37.3498 126.749L35.8887 105.988C35.3836 99.3865 37.4118 92.8402 41.5609 87.6804C43.5218 85.2019 45.9708 83.1524 48.7562 81.6591C51.5416 80.1658 54.604 79.2604 57.7536 78.999C59.0458 78.9413 60.3081 79.3986 61.2636 80.2705C62.2191 81.1423 62.7897 82.3577 62.8503 83.6497V83.671L67.1294 144.553C67.256 145.854 66.8669 147.152 66.0459 148.168C65.225 149.185 64.0378 149.838 62.7398 149.988C62.1438 150.034 61.5513 150.058 60.9624 150.058ZM57.3925 84.9536C52.6096 85.7115 48.2953 88.2639 45.328 92.0909C42.3607 95.9179 40.9635 100.732 41.4208 105.553L42.8797 126.313C43.1907 131.349 45.4316 136.07 49.1359 139.495C52.4951 142.631 56.9591 144.311 61.5527 144.167L57.3925 84.9536Z" fill="#251335"/>
<g opacity="0.35">
<path opacity="0.35" d="M240.035 170.113C234.518 183.109 226.296 194.781 215.917 204.353C209.099 210.632 201.381 215.857 193.018 219.855C180.616 225.771 167.009 228.728 153.27 228.491C139.531 228.255 126.034 224.832 113.843 218.492C106.575 214.716 99.8373 209.999 93.8021 204.463C83.9554 195.407 76.0376 184.457 70.5229 172.269C88.5412 180.512 107.412 186.746 126.795 190.859L122.643 199.725H183.572L179.41 190.859C179.41 190.859 212.672 184.288 240.035 170.113Z" fill="#251335"/>
</g>
<path d="M154.803 211.031C208.868 211.031 252.696 164.45 252.696 106.988C252.696 49.5271 208.868 2.94556 154.803 2.94556C100.738 2.94556 56.9104 49.5271 56.9104 106.988C56.9104 164.45 100.738 211.031 154.803 211.031Z" fill="white"/>
<path d="M154.793 211.558C141.774 211.522 128.902 208.808 116.977 203.583C105.053 198.359 94.3314 190.736 85.4796 181.19C66.8788 161.088 56.5052 134.734 56.4132 107.347C56.3212 79.9591 66.5174 53.5357 84.9827 33.3092C93.8095 23.6529 104.536 15.9246 116.491 10.6089C128.445 5.29328 141.368 2.50501 154.451 2.41895H154.812C167.83 2.45513 180.702 5.16983 192.627 10.3942C204.551 15.6186 215.273 23.2409 224.125 32.7869C242.725 52.8898 253.099 79.2446 253.191 106.633C253.283 134.021 243.087 160.445 224.622 180.672C215.795 190.329 205.069 198.058 193.115 203.374C181.16 208.691 168.236 211.479 155.154 211.564L154.793 211.558ZM154.812 3.48076H154.455C141.505 3.56583 128.712 6.32611 116.878 11.5884C105.045 16.8507 94.4269 24.5016 85.6898 34.061C67.4119 54.0815 57.3188 80.2359 57.4092 107.345C57.4997 134.454 67.7671 160.54 86.1782 180.438C94.9416 189.887 105.555 197.432 117.36 202.603C129.164 207.774 141.906 210.461 154.793 210.496H155.149C168.1 210.412 180.893 207.652 192.727 202.39C204.56 197.127 215.178 189.476 223.914 179.916C242.192 159.893 252.284 133.737 252.193 106.627C252.102 79.5168 241.834 53.4292 223.422 33.5301C214.658 24.0833 204.045 16.5406 192.241 11.3711C180.438 6.20154 167.697 3.51574 154.812 3.48076Z" fill="#251335"/>
<g opacity="0.35">
<path opacity="0.35" d="M251.706 92.2185C252.351 96.9918 252.68 101.802 252.694 106.619C252.881 164.078 209.211 210.823 155.149 211.033C101.088 211.244 57.1059 164.819 56.9084 107.36C56.9084 105.708 56.9318 104.053 56.9998 102.425C63.7699 153.046 104.781 191.882 154.262 191.698C206.764 191.494 249.458 147.397 251.706 92.2185Z" fill="#251335"/>
</g>
<path d="M154.797 213.975C141.475 213.94 128.303 211.165 116.101 205.82C103.898 200.475 92.926 192.676 83.8677 182.908C64.8404 162.339 54.2299 135.376 54.1371 107.356C54.0443 79.3359 64.4759 52.3026 83.3666 31.6081C92.3967 21.7274 103.371 13.8195 115.602 8.38032C127.832 2.94111 141.055 0.0879804 154.44 0H154.81C168.129 0.0369479 181.298 2.81387 193.498 8.15803C205.698 13.5022 216.668 21.2993 225.726 31.0645C244.752 51.6344 255.362 78.5978 255.456 106.618C255.55 134.638 245.121 161.672 226.233 182.369C217.203 192.249 206.228 200.157 193.997 205.596C181.766 211.035 168.543 213.887 155.158 213.975H154.797ZM154.816 5.89312H154.468C141.818 5.97428 129.321 8.66896 117.762 13.8082C106.202 18.9474 95.83 26.4202 87.2953 35.7577C69.4439 55.3122 59.5867 80.8574 59.6755 107.335C59.7644 133.812 69.793 159.29 87.7752 178.724C96.3342 187.953 106.701 195.322 118.23 200.373C129.759 205.423 142.204 208.047 154.79 208.082H155.139C167.786 207.998 180.279 205.301 191.835 200.162C203.391 195.022 213.76 187.55 222.292 178.215C240.143 158.66 250.001 133.115 249.912 106.638C249.823 80.1606 239.794 54.6822 221.812 35.248C213.253 26.021 202.888 18.6534 191.36 13.6033C179.832 8.55329 167.389 5.92883 154.803 5.89312H154.816Z" fill="#251335"/>
<path d="M252.39 109.288C252.763 128.871 247.227 148.112 236.505 164.503C228.739 176.395 196.331 197.548 155.873 198.74C118.362 199.844 83.8507 179.26 75.6726 167.694C64.3727 151.72 58.163 132.703 57.8575 113.138C56.9125 59.2811 100.065 36.0933 153.784 35.0187C207.503 33.9442 251.451 55.4183 252.39 109.288Z" fill="#251335"/>
<path d="M152.915 201.743C115.206 201.743 81.8546 181.343 73.4663 169.478C61.809 153.001 55.4051 133.384 55.0948 113.202C54.6276 86.6908 64.2752 66.0577 83.7637 51.8507C100.74 39.4826 124.939 32.6425 153.744 32.0712C182.548 31.4999 206.97 37.3803 224.369 49.0602C244.344 62.4752 254.707 82.7197 255.161 109.231C255.552 129.433 249.844 149.283 238.782 166.191C231.097 177.947 198.911 200.43 155.961 201.692C154.934 201.727 153.919 201.744 152.915 201.743ZM157.572 37.9324C156.339 37.9324 155.098 37.9451 153.846 37.9706C126.128 38.5206 102.978 45.0041 86.8982 56.718C69.0449 69.7252 60.2128 88.6913 60.6396 113.096C60.9327 132.047 66.9488 150.467 77.8983 165.938C85.6729 176.932 119.267 196.873 155.806 195.805C196.286 194.614 227.334 173.396 234.235 162.833C244.626 146.957 249.989 128.317 249.625 109.346C249.2 84.941 239.702 66.338 221.404 54.0486C205.668 43.4793 183.657 37.9324 157.575 37.9324H157.572Z" fill="#251335"/>
<g opacity="0.7">
<path opacity="0.7" d="M208.255 100.486C209.786 90.4495 216.575 83.2673 223.415 84.4438C230.256 85.6203 234.562 94.7158 233.031 104.752C231.5 114.788 224.713 121.97 217.873 120.794C211.033 119.617 206.715 110.522 208.255 100.486Z" fill="white"/>
</g>
<g opacity="0.7">
<path opacity="0.7" d="M199.385 137.208C200.678 132.748 204.651 130.085 208.251 131.261C211.85 132.438 213.723 137.019 212.434 141.482C211.145 145.946 207.168 148.605 203.568 147.418C199.969 146.231 198.081 141.669 199.385 137.208Z" fill="white"/>
</g>
<g opacity="0.35">
<path opacity="0.35" d="M232.589 59.4128C244.694 71.2351 252.006 87.6571 252.39 109.288C252.762 128.874 247.229 148.118 236.512 164.515C228.744 176.408 196.333 197.561 155.876 198.757C142.175 199.03 128.537 196.836 115.614 192.278C165.307 189.685 204.791 163.71 214.42 148.975C228.028 128.171 235.053 103.75 234.577 78.895C234.485 72.3553 233.82 65.8364 232.589 59.4128Z" fill="#0C141E"/>
</g>
<path d="M64.3772 69.3004C63.8862 69.3002 63.4123 69.1196 63.0457 68.7928C62.6346 68.4175 62.371 67.9076 62.3024 67.3551C62.2339 66.8026 62.3649 66.2438 62.6719 65.7794C79.2978 38.7562 112.218 22.7908 153.009 21.9796C193.57 21.1769 227.049 35.3585 244.864 60.8781L243.193 62.216L241.859 63.9361L241.662 63.7641L241.496 63.5326C224.507 39.181 192.262 25.6577 153.085 26.4392C113.677 27.2228 81.9863 42.4726 66.1419 68.2747L65.9933 68.487C65.8052 68.7383 65.5613 68.9426 65.2809 69.0837C65.0005 69.2248 64.6912 69.299 64.3772 69.3004ZM64.2541 66.9644L64.3772 67.0727L64.2541 66.9644Z" fill="#251335"/>
<g opacity="0.7">
<path opacity="0.7" d="M80.266 144.763C80.266 144.763 63.6338 91.9256 90.211 70.2242C116.788 48.5229 155.553 47.8285 154.695 50.4894C154.695 50.4894 111.97 62.3816 95.811 98.7785C83.3453 126.842 80.266 144.763 80.266 144.763Z" fill="white"/>
</g>
<path d="M19.6663 243.65C19.2434 243.9 18.8896 244.252 18.6371 244.674C18.3846 245.096 18.2412 245.574 18.2201 246.065C18.1588 246.825 18.3998 247.578 18.8909 248.162C19.382 248.745 20.0834 249.111 20.8428 249.18C53.9713 251.255 71.9839 280.761 72.1623 281.06C72.3375 281.37 72.5721 281.642 72.8526 281.861C73.1331 282.08 73.454 282.241 73.797 282.336C74.14 282.431 74.4983 282.457 74.8515 282.414C75.2047 282.37 75.5458 282.257 75.8553 282.081C75.9105 282.052 75.9614 282.018 76.0145 281.984C76.6485 281.545 77.0921 280.882 77.2558 280.128C77.4194 279.375 77.2907 278.588 76.8958 277.925C76.1101 276.605 57.2332 245.557 21.1762 243.31C20.6502 243.27 20.1244 243.389 19.6663 243.65Z" fill="#251335"/>
<path d="M158.286 212.938H155.997C154.557 212.938 153.391 214.105 153.391 215.544V225.737C153.391 227.176 154.557 228.343 155.997 228.343H158.286C159.725 228.343 160.892 227.176 160.892 225.737V215.544C160.892 214.105 159.725 212.938 158.286 212.938Z" fill="#F7F8F8" stroke="#251335" stroke-miterlimit="10"/>
</svg>
