<svg width="313" height="488" viewBox="0 0 313 488" fill="none" xmlns="http://www.w3.org/2000/svg">
<path d="M101.941 366.764H208.854C229.077 366.764 245.62 349.179 245.62 327.69V205.706C245.62 184.212 229.075 166.631 208.854 166.631H101.941C81.718 166.631 65.175 184.217 65.175 205.706V327.688C65.1729 349.179 81.7201 366.764 101.941 366.764Z" fill="white"/>
<g opacity="0.35">
<path opacity="0.35" d="M111.848 355.777H198.948C219.171 355.777 235.714 338.191 235.714 316.702V216.693C235.714 195.2 219.169 177.619 198.948 177.619H111.848C91.6246 177.619 75.0817 195.204 75.0817 216.693V316.7C75.0795 338.191 91.6267 355.777 111.848 355.777Z" fill="#371A45"/>
</g>
<path d="M208.854 369.714H101.941C80.1382 369.714 62.3997 350.86 62.3997 327.688V205.705C62.3997 182.533 80.1382 163.679 101.941 163.679H208.854C230.657 163.679 248.396 182.533 248.396 205.705V327.694C248.396 350.863 230.66 369.714 208.854 369.714ZM101.943 169.574C83.1983 169.574 67.9487 185.782 67.9487 205.705V327.694C67.9487 347.616 83.1983 363.825 101.943 363.825H208.856C227.602 363.825 242.851 347.618 242.851 327.694V205.705C242.851 185.784 227.602 169.574 208.856 169.574H101.943Z" fill="#371A45"/>
<path d="M126.874 216.704L119.178 211.044L102.86 199.048L75.7652 179.122C71.0429 181.805 66.5218 184.828 62.2378 188.167C16.1363 224.013 7.31488 288.632 6.41022 326.464C6.13412 336.144 6.41206 345.831 7.24267 355.479C7.29364 356.021 7.32762 356.305 7.32762 356.305C7.32762 356.305 8.11123 356.45 9.47883 356.679C15.4653 357.726 32.6538 360.608 44.1404 361.536C47.3702 361.945 50.6388 361.945 53.8686 361.536C61.4457 359.735 57.8462 325.815 69.7193 290.711C73.5676 280.323 78.8908 270.543 85.5253 261.671C97.7047 245.283 111.563 230.212 126.874 216.704Z" fill="white"/>
<path d="M186.104 218.027L193.8 212.367L210.118 200.371L237.209 180.447C241.928 183.129 246.446 186.151 250.727 189.487C296.839 225.336 305.657 289.955 306.566 327.788C306.842 337.467 306.564 347.155 305.733 356.802C305.682 357.344 305.648 357.628 305.648 357.628C305.648 357.628 304.865 357.773 303.497 358.002C297.511 359.049 280.322 361.931 268.835 362.859C265.606 363.268 262.337 363.268 259.107 362.859C251.53 361.058 255.13 327.138 243.257 292.034C239.408 281.646 234.085 271.866 227.451 262.994C215.272 246.606 201.414 231.535 186.104 218.027Z" fill="white"/>
<path d="M239.122 178.184C258.746 189.692 274.77 206.447 285.391 226.566C295.256 245.22 301.999 265.365 305.353 286.199C309.479 309.891 310.511 334.019 308.424 357.977L308.177 360.162L306.122 360.534C302.087 361.262 266.385 367.605 258.498 365.734C252.845 364.39 251.806 355.52 250.086 340.82C248.6 328.028 246.544 310.506 240.632 293.028C229.149 259.078 184.794 220.696 184.356 220.314C183.778 219.801 183.414 219.089 183.339 218.319C183.265 217.55 183.484 216.781 183.953 216.166C184.175 215.869 184.456 215.621 184.778 215.438C185.1 215.254 185.457 215.139 185.826 215.099C186.194 215.059 186.567 215.095 186.922 215.206C187.276 215.317 187.603 215.499 187.884 215.742C189.757 217.349 233.896 255.54 245.903 291.049C252.021 309.14 254.112 327.036 255.641 340.105C256.349 346.15 256.958 351.36 257.784 355.067C258.774 359.495 259.723 359.994 259.734 359.99C264.618 361.152 288.046 357.745 303.085 355.106C304.756 332.398 303.667 309.57 299.84 287.125C293.835 252.935 277.967 207.247 236.453 183.359L235.905 183.045C235.238 182.653 234.747 182.02 234.536 181.276C234.324 180.533 234.407 179.736 234.769 179.052C234.929 178.717 235.157 178.417 235.438 178.173C235.719 177.929 236.048 177.746 236.402 177.633C236.757 177.521 237.131 177.483 237.502 177.521C237.872 177.559 238.23 177.672 238.555 177.854L239.122 178.184Z" fill="#371A45"/>
<path d="M306.385 364.443C310.736 358.109 312.206 347.395 306.453 343.175C300.7 338.956 263.106 344.248 258.234 347.996C253.363 351.744 253.537 373.409 259.43 376.028C265.323 378.646 296.767 378.446 306.385 364.443Z" fill="white"/>
<path d="M256.589 345.615C252.129 349.049 251.545 359.759 252.246 366.119C252.771 370.876 254.259 376.934 258.347 378.741C265.022 381.715 298.097 381.538 308.649 366.174C312.057 361.172 313.529 355.101 312.792 349.094C312.592 347.46 312.07 345.881 311.256 344.45C310.442 343.019 309.352 341.764 308.05 340.756C307.909 340.654 307.762 340.559 307.611 340.472C299.558 335.838 262.036 341.425 256.589 345.615ZM304.122 362.717C295.627 375.078 265.803 375.656 260.515 373.309C259.757 372.98 258.364 370.549 257.799 365.437C256.975 357.979 258.509 351.434 259.882 350.376C261.301 349.285 269.891 346.994 282.325 345.528C296.409 343.868 303.62 344.679 304.856 345.596C305.538 346.145 306.103 346.825 306.518 347.595C306.934 348.365 307.192 349.21 307.277 350.081C307.74 354.533 306.622 359.006 304.119 362.717H304.122Z" fill="#371A45"/>
<path d="M293.314 244.971C293.738 245.221 294.093 245.573 294.347 245.994C294.6 246.416 294.745 246.894 294.767 247.386C294.831 248.147 294.59 248.903 294.099 249.489C293.607 250.074 292.904 250.441 292.142 250.509C259.014 252.584 241.002 282.09 240.823 282.389C240.64 282.712 240.392 282.994 240.095 283.218C239.799 283.441 239.459 283.601 239.098 283.688C238.736 283.774 238.361 283.786 237.995 283.721C237.629 283.657 237.281 283.518 236.971 283.313C236.337 282.874 235.893 282.211 235.73 281.457C235.566 280.704 235.695 279.917 236.09 279.255C236.875 277.934 255.752 246.886 291.809 244.629C292.334 244.591 292.858 244.71 293.314 244.971Z" fill="#371A45"/>
<path d="M73.8544 176.858C54.2292 188.366 38.2045 205.122 27.5831 225.241C17.7184 243.895 10.9751 264.039 7.62112 284.874C3.49568 308.566 2.46348 332.694 4.55039 356.652L4.79673 358.837L6.85238 359.208C10.8872 359.937 46.5894 366.28 54.4764 364.409C60.1295 363.065 61.1679 354.195 62.8881 339.495C64.3746 326.702 66.4302 309.18 72.3424 291.703C83.8247 257.753 128.181 219.371 128.618 218.989C129.197 218.476 129.56 217.764 129.635 216.994C129.71 216.225 129.49 215.456 129.021 214.841C128.799 214.544 128.518 214.296 128.196 214.112C127.874 213.929 127.517 213.813 127.149 213.773C126.78 213.734 126.407 213.77 126.053 213.881C125.699 213.991 125.371 214.174 125.091 214.417C123.218 216.024 79.0784 254.215 67.0716 289.724C60.9534 307.815 58.8617 325.711 57.3327 338.779C56.6255 344.825 56.0161 350.034 55.19 353.742C54.2004 358.17 53.2511 358.669 53.2405 358.665C48.3562 359.824 24.9285 356.42 9.88914 353.78C8.21773 331.072 9.30732 308.245 13.134 285.8C19.1396 251.609 35.0072 205.922 76.5216 182.034L77.0695 181.719C77.7365 181.328 78.2269 180.695 78.4385 179.951C78.6501 179.207 78.5667 178.411 78.2056 177.727C78.0447 177.391 77.8167 177.092 77.5357 176.848C77.2547 176.604 76.9267 176.42 76.5718 176.308C76.2169 176.196 75.8428 176.158 75.4726 176.196C75.1024 176.234 74.7439 176.347 74.4193 176.529L73.8544 176.858Z" fill="#371A45"/>
<path d="M6.59509 363.12C2.24382 356.785 0.774281 346.072 6.52714 341.852C12.28 337.632 49.8742 342.925 54.7458 346.673C59.6174 350.421 59.4432 372.086 53.5502 374.704C47.6572 377.323 16.2108 377.123 6.59509 363.12Z" fill="white"/>
<path d="M5.3678 339.14C5.2159 339.227 5.06912 339.322 4.92821 339.425C3.62608 340.432 2.53655 341.688 1.72261 343.119C0.908675 344.55 0.386472 346.128 0.186195 347.762C-0.552083 353.77 0.920564 359.841 4.32936 364.842C14.8837 380.207 47.9568 380.372 54.6313 377.41C58.7192 375.603 60.2058 369.552 60.7324 364.787C61.4332 358.416 60.8556 347.718 56.3896 344.284C50.9405 340.102 13.4205 334.515 5.3678 339.14ZM8.85689 361.385C6.35309 357.674 5.23519 353.2 5.69909 348.747C5.78425 347.877 6.04221 347.031 6.45789 346.261C6.87357 345.491 7.43862 344.812 8.12 344.262C9.35594 343.347 16.5698 342.536 30.6515 344.194C43.0873 345.66 51.6752 347.953 53.0938 349.043C54.4678 350.104 55.9989 356.643 55.177 364.103C54.6143 369.2 53.2191 371.646 52.461 371.976C47.1732 374.324 17.345 373.744 8.85477 361.385H8.85689Z" fill="#371A45"/>
<path d="M248.774 467.803C248.725 468.26 248.67 468.708 248.587 469.158C246.349 482.62 230.785 487.421 202.785 483.718C190.107 482.047 172.575 480.057 167.958 469.823C158.731 449.392 168.153 402.893 167.057 376.414V376.363C159.471 377.219 151.811 377.219 144.224 376.363C144.224 376.575 144.212 376.788 144.203 377.013C143.26 403.522 152.475 449.549 143.316 469.827C138.69 480.061 121.166 482.051 108.488 483.722C80.4567 487.428 64.8907 482.618 62.6736 469.112C62.5972 468.687 62.5334 468.249 62.4931 467.808C60.877 451.362 83.5168 443.722 83.5168 443.722C83.5168 443.722 78.5731 403.649 75.3239 372.156C73.5896 353.735 73.4155 335.201 74.8037 316.751C75.4407 307.261 76.3985 297.904 77.5431 288.87C79.3864 274.355 81.7372 260.658 84.1263 248.568C88.2164 227.969 92.4445 211.993 94.5511 204.465C95.4175 201.384 95.923 199.719 95.923 199.719H215.329C215.329 199.719 215.828 201.346 216.667 204.355C218.746 211.775 222.949 227.579 227.024 248.016C229.458 260.225 231.849 274.105 233.722 288.834C234.866 297.853 235.816 307.195 236.468 316.677C237.853 335.152 237.678 353.712 235.947 372.158C232.688 403.649 227.761 443.724 227.761 443.724C227.761 443.724 250.39 451.35 248.774 467.803Z" fill="white"/>
<g opacity="0.35">
<path opacity="0.35" d="M115.048 364.176C127.401 366.246 139.884 367.452 152.405 367.786C168.684 367.786 194.741 364.176 194.741 364.176C182.918 372.585 168.656 376.869 154.157 376.367C128.588 375.802 115.048 364.176 115.048 364.176Z" fill="#371A45"/>
</g>
<path d="M214.581 185.036H95.1813C94.4305 184.991 93.7251 184.661 93.2094 184.114C92.6937 183.566 92.4065 182.842 92.4065 182.09C92.4065 181.338 92.6937 180.614 93.2094 180.066C93.7251 179.518 94.4305 179.188 95.1813 179.143H214.581C215.332 179.188 216.037 179.518 216.553 180.066C217.069 180.614 217.356 181.338 217.356 182.09C217.356 182.842 217.069 183.566 216.553 184.114C216.037 184.661 215.332 184.991 214.581 185.036Z" fill="#371A45"/>
<path d="M225.599 240.155C230.344 256.608 233.822 273.4 236.005 290.384C236.308 292.508 236.568 294.632 236.818 296.77C237.069 298.909 237.336 301.032 237.534 303.171L238.154 309.586C238.347 311.725 238.468 313.876 238.63 316.019L238.857 319.236L239.018 322.459C239.118 324.609 239.25 326.758 239.32 328.909C239.443 333.213 239.558 337.518 239.509 341.831C239.553 346.14 239.354 350.453 239.243 354.764C238.984 359.073 238.836 363.386 238.394 367.686C238.06 372.014 237.527 376.236 237.033 380.476L235.576 393.201L229.757 444.098L227.846 440.912C229.08 441.337 230.116 441.787 231.218 442.284C232.32 442.781 233.365 443.303 234.414 443.866C236.544 445.007 238.58 446.315 240.503 447.778C242.509 449.298 244.335 451.044 245.943 452.981C247.658 455.065 248.988 457.438 249.87 459.989C250.759 462.666 251.061 465.504 250.755 468.309C250.602 469.679 250.328 471.034 249.938 472.357C249.525 473.696 248.967 474.986 248.273 476.204C246.901 478.563 245.028 480.593 242.788 482.151C240.716 483.586 238.446 484.71 236.049 485.489C231.543 486.906 226.862 487.685 222.14 487.806C217.567 487.974 212.987 487.839 208.432 487.402C206.166 487.211 203.915 486.937 201.668 486.653L195 485.748C190.447 485.147 185.94 484.236 181.511 483.019C179.209 482.369 176.963 481.534 174.796 480.522C172.466 479.443 170.317 478.01 168.425 476.275C167.419 475.315 166.528 474.24 165.773 473.072C165.385 472.464 165.037 471.83 164.732 471.176L163.989 469.373C163.102 466.999 162.413 464.555 161.929 462.068C160.376 452.462 159.907 442.712 160.53 433.002C160.91 423.431 161.723 413.957 162.441 404.526C162.795 399.814 163.131 395.11 163.36 390.428C163.471 388.092 163.56 385.756 163.592 383.42C163.641 381.06 163.592 378.871 163.526 376.361L166.626 379.287C164.611 379.523 162.706 379.669 160.744 379.782C158.782 379.895 156.843 379.948 154.883 379.95C152.923 379.952 150.971 379.89 149.022 379.782C147.072 379.674 145.155 379.523 143.139 379.287L146.238 376.469C146.099 385.832 146.461 395.196 147.323 404.52C148.03 413.951 148.843 423.42 149.223 432.995C149.41 437.782 149.489 442.592 149.338 447.436C149.222 452.344 148.715 457.236 147.822 462.063C147.336 464.551 146.647 466.994 145.762 469.369L145.019 471.172C144.713 471.825 144.365 472.459 143.978 473.068C143.222 474.236 142.332 475.31 141.326 476.27C139.433 478.006 137.285 479.438 134.955 480.518C132.788 481.53 130.542 482.366 128.24 483.015C123.815 484.23 119.313 485.141 114.764 485.742L108.096 486.646C105.849 486.929 103.598 487.205 101.332 487.396C96.7764 487.832 92.1971 487.966 87.6239 487.797C82.9021 487.677 78.2203 486.897 73.7143 485.48C71.3175 484.702 69.0474 483.577 66.9761 482.142C64.735 480.585 62.8626 478.555 61.4908 476.196C60.7998 474.977 60.2423 473.687 59.828 472.348C59.4396 471.029 59.166 469.679 59.0104 468.313C58.7064 465.507 59.0099 462.667 59.9002 459.989C60.7835 457.438 62.1146 455.064 63.831 452.981C65.4394 451.044 67.2658 449.299 69.2738 447.78C71.1962 446.317 73.2321 445.01 75.3622 443.87C76.4141 443.304 77.4795 442.777 78.5583 442.288C79.6583 441.794 80.6946 441.352 81.9306 440.916L80.0193 444.102L74.2027 393.375L72.7523 380.691C72.2766 376.459 71.7415 372.258 71.4229 367.949C70.9982 363.662 70.8453 359.364 70.5969 355.07C70.5077 350.774 70.3272 346.475 70.3845 342.184C70.3526 337.887 70.497 333.6 70.616 329.31C70.6797 327.165 70.8283 325.029 70.909 322.886L71.0555 319.673L71.2679 316.467C71.8137 307.913 72.5187 299.374 73.5657 290.881C74.534 282.387 75.9292 273.937 77.6005 265.57C79.2424 257.199 81.3855 248.934 84.0181 240.819C84.0535 240.7 84.113 240.589 84.1927 240.493C84.2725 240.398 84.3709 240.319 84.482 240.263C84.593 240.206 84.7145 240.173 84.8388 240.165C84.9631 240.157 85.0878 240.175 85.2052 240.216C85.4062 240.298 85.5751 240.443 85.6863 240.629C85.7975 240.815 85.8448 241.033 85.821 241.248C85.014 249.762 83.8737 258.161 82.7545 266.551C81.6354 274.942 80.4823 283.309 79.4332 291.693C77.182 308.431 76.0109 325.297 75.9271 342.186C75.8634 346.403 76.0439 350.612 76.1395 354.823C76.3837 359.022 76.526 363.233 76.9464 367.412C77.2522 371.583 77.7959 375.819 78.2652 380.037L79.7135 392.698L85.511 443.342L85.787 445.76L83.5997 446.531C82.7184 446.843 81.6778 447.275 80.7265 447.706C79.7751 448.137 78.8004 448.621 77.8596 449.122C75.9877 450.123 74.1983 451.272 72.5081 452.556C70.853 453.805 69.3467 455.24 68.0188 456.833C66.7573 458.357 65.7752 460.091 65.1179 461.957C64.5104 463.784 64.3046 465.72 64.5148 467.634C64.628 468.613 64.8234 469.581 65.0988 470.528C65.381 471.431 65.7568 472.301 66.2201 473.125C68.3521 476.419 71.6187 478.816 75.4005 479.861C79.436 481.116 83.6263 481.804 87.8512 481.906C92.1949 482.064 96.5443 481.935 100.871 481.52C103.052 481.337 105.233 481.07 107.412 480.796L114.014 479.902C118.327 479.335 122.597 478.475 126.794 477.328C130.777 476.365 134.487 474.502 137.639 471.883C138.305 471.245 138.895 470.532 139.398 469.759C139.634 469.383 139.847 468.992 140.035 468.589L140.631 467.137C141.391 465.089 141.982 462.982 142.398 460.838C143.846 451.716 144.277 442.461 143.683 433.244C143.311 423.87 142.507 414.458 141.795 405C140.914 395.446 140.547 385.852 140.695 376.259L140.803 373.091L143.791 373.441C145.567 373.653 147.465 373.798 149.313 373.902C151.16 374.006 153.031 374.059 154.885 374.063C156.739 374.067 158.599 374.008 160.457 373.902C162.316 373.796 164.203 373.649 165.979 373.441L168.971 373.091L169.075 376.376C169.149 378.601 169.192 381.152 169.141 383.53C169.107 385.945 169.016 388.344 168.903 390.738C168.667 395.52 168.33 400.271 167.973 405.006C167.259 414.471 166.454 423.885 166.083 433.25C165.482 442.467 165.91 451.722 167.357 460.844C167.771 462.989 168.362 465.096 169.124 467.143L169.718 468.596C169.906 468.999 170.119 469.39 170.356 469.766C170.858 470.539 171.448 471.251 172.114 471.889C175.265 474.509 178.976 476.372 182.959 477.334C187.155 478.481 191.424 479.341 195.737 479.908L202.339 480.802C204.52 481.076 206.701 481.344 208.88 481.528C213.207 481.944 217.556 482.073 221.9 481.917C226.125 481.815 230.315 481.128 234.35 479.874C238.132 478.829 241.398 476.433 243.531 473.14C243.998 472.318 244.374 471.448 244.652 470.545C244.927 469.599 245.123 468.631 245.236 467.653C245.446 465.738 245.24 463.8 244.633 461.972C243.978 460.106 242.997 458.37 241.736 456.846C240.408 455.253 238.902 453.818 237.247 452.569C235.557 451.284 233.768 450.136 231.896 449.135C230.955 448.632 229.999 448.156 229.031 447.718C228.062 447.281 227.041 446.854 226.158 446.544L223.97 445.773L224.246 443.354L230.076 392.532L231.528 379.829C232 375.594 232.511 371.347 232.802 367.161C233.212 362.969 233.333 358.741 233.565 354.532C233.624 350.308 233.777 346.087 233.688 341.856C233.643 333.402 233.278 324.94 232.692 316.494C232.106 308.049 231.316 299.607 230.388 291.179C228.508 274.319 225.998 257.541 223.805 240.596C223.765 240.345 223.825 240.087 223.972 239.879C224.119 239.671 224.342 239.528 224.593 239.482C224.813 239.452 225.038 239.504 225.223 239.628C225.408 239.752 225.542 239.939 225.599 240.155Z" fill="#371A45"/>
<g opacity="0.35">
<path opacity="0.35" d="M142.546 469.821C137.923 480.055 120.399 482.042 107.719 483.72C79.6876 487.423 64.1215 482.611 61.9023 469.107C84.8564 478.351 125.315 473.074 132.234 461.341C141.192 446.151 142.64 430.974 128.711 412.046C114.782 393.118 113.706 363.269 113.706 363.269C120.363 368.238 134.058 373.638 143.436 377.009C142.504 403.515 151.716 449.543 142.546 469.821Z" fill="#371A45"/>
</g>
<g opacity="0.35">
<path opacity="0.35" d="M247.839 469.156C245.599 482.62 230.042 487.419 202.04 483.72C189.355 482.042 171.825 480.055 167.202 469.821C157.975 449.392 167.395 402.893 166.301 376.41C174.061 373.949 188.427 368.913 195.994 363.271C195.994 363.271 199.816 386.191 183.579 410.466C170.487 430.054 169.534 445.642 178.482 460.821C184.843 471.596 222.607 476.02 247.839 469.156Z" fill="#371A45"/>
</g>
<path d="M203.747 423.382C193.979 423.382 181.279 421.422 164.953 415.76C164.412 415.553 163.97 415.146 163.72 414.624C163.47 414.101 163.43 413.502 163.609 412.951C163.682 412.679 163.81 412.426 163.985 412.206C164.16 411.986 164.377 411.803 164.625 411.67C164.872 411.536 165.144 411.455 165.424 411.429C165.704 411.404 165.986 411.436 166.253 411.524C215.115 428.461 229.413 410.836 229.551 410.655C229.716 410.431 229.925 410.244 230.166 410.105C230.406 409.966 230.673 409.878 230.949 409.847C231.225 409.816 231.505 409.842 231.77 409.923C232.036 410.005 232.282 410.141 232.492 410.322C232.928 410.703 233.204 411.235 233.267 411.81C233.33 412.386 233.175 412.964 232.832 413.431C232.405 414.006 225.096 423.382 203.747 423.382Z" fill="#371A45"/>
<path d="M103.863 424.641C93.6506 424.641 83.8523 422.698 77.5749 416.818C77.1569 416.411 76.906 415.863 76.8714 415.281C76.8368 414.7 77.0211 414.126 77.388 413.673C77.5621 413.455 77.7797 413.276 78.0268 413.146C78.274 413.017 78.5453 412.941 78.8236 412.922C79.1019 412.904 79.381 412.943 79.6431 413.038C79.9052 413.134 80.1447 413.282 80.3462 413.475C96.698 428.793 143.462 413.182 143.933 413.025C144.201 412.94 144.484 412.91 144.764 412.937C145.043 412.964 145.315 413.048 145.561 413.183C145.808 413.318 146.024 413.502 146.197 413.724C146.371 413.945 146.497 414.199 146.569 414.471C146.745 415.024 146.701 415.622 146.448 416.144C146.194 416.665 145.75 417.069 145.208 417.272C143.893 417.714 123.141 424.641 103.863 424.641Z" fill="#371A45"/>
<path d="M143.02 379.274C141.605 379.043 140.203 378.737 138.82 378.359C137.465 377.985 136.12 377.576 134.8 377.108C132.142 376.188 129.55 375.088 127.042 373.817C125.778 373.201 124.54 372.515 123.317 371.821C122.115 371.067 120.894 370.37 119.73 369.557C117.25 368.021 115.15 365.943 113.587 363.479C113.551 363.42 113.538 363.35 113.551 363.282C113.565 363.215 113.603 363.154 113.659 363.114C113.685 363.095 113.715 363.082 113.746 363.076C113.778 363.069 113.81 363.069 113.842 363.076C116.511 363.725 119.094 364.688 121.538 365.945C123.944 367.093 126.409 368.081 128.89 369.003C130.13 369.465 131.383 369.88 132.627 370.317L136.397 371.489C137.66 371.85 138.919 372.213 140.183 372.551C141.446 372.889 142.748 373.207 143.901 373.466L144.001 373.488C144.74 373.68 145.376 374.151 145.775 374.802C146.174 375.453 146.304 376.233 146.14 376.979C146.015 377.689 145.621 378.324 145.04 378.752C144.459 379.18 143.736 379.367 143.02 379.274Z" fill="#371A45"/>
<path d="M165.798 373.458C166.951 373.197 168.27 372.865 169.514 372.543C170.759 372.22 172.039 371.85 173.301 371.481L177.07 370.309C178.312 369.871 179.567 369.459 180.808 368.994C183.286 368.072 185.754 367.083 188.16 365.936C190.603 364.68 193.186 363.717 195.856 363.067C195.889 363.061 195.923 363.062 195.955 363.07C195.988 363.078 196.019 363.092 196.046 363.112C196.073 363.131 196.096 363.157 196.113 363.185C196.131 363.214 196.142 363.246 196.146 363.28C196.16 363.347 196.147 363.417 196.11 363.475C194.548 365.939 192.447 368.016 189.967 369.553C188.803 370.366 187.582 371.065 186.38 371.816C185.155 372.511 183.919 373.197 182.655 373.813C180.147 375.085 177.555 376.184 174.898 377.104C173.575 377.574 172.23 377.981 170.876 378.355C169.492 378.733 168.09 379.038 166.675 379.27C166.306 379.318 165.931 379.292 165.572 379.193C165.214 379.094 164.878 378.925 164.585 378.695C164.293 378.465 164.049 378.179 163.868 377.854C163.687 377.528 163.573 377.17 163.532 376.801C163.415 376.078 163.571 375.337 163.97 374.723C164.37 374.11 164.983 373.667 165.692 373.481L165.798 373.458Z" fill="#371A45"/>
<path d="M82.2809 440.81C84.0385 440.439 85.8172 440.175 87.6069 440.02C89.3674 439.836 91.1343 439.772 92.9011 439.738C96.4434 439.709 99.9825 439.96 103.485 440.49C107.018 441.042 110.477 441.988 113.8 443.31C117.144 444.705 120.197 446.717 122.797 449.241C119.556 448.189 116.25 447.35 112.899 446.729C109.624 446.203 106.324 445.848 103.012 445.667C99.6974 445.551 96.3824 445.586 93.0667 445.771C91.4103 445.839 89.7539 445.983 88.1017 446.117C86.4496 446.251 84.7634 446.434 83.2174 446.614L83.1155 446.627C82.7437 446.659 82.3691 446.618 82.0135 446.504C81.658 446.391 81.3284 446.208 81.0441 445.966C80.7598 445.724 80.5264 445.428 80.3574 445.096C80.1884 444.763 80.0872 444.4 80.0596 444.028C79.9719 443.312 80.1495 442.59 80.5589 441.997C80.9683 441.404 81.581 440.982 82.2809 440.81Z" fill="#371A45"/>
<path d="M226.537 446.618C225 446.436 223.297 446.264 221.653 446.121C220.009 445.979 218.346 445.843 216.688 445.775C213.374 445.591 210.059 445.557 206.743 445.671C203.431 445.854 200.131 446.208 196.856 446.733C193.505 447.355 190.199 448.194 186.957 449.245C189.557 446.72 192.61 444.708 195.955 443.314C199.277 441.992 202.737 441.046 206.27 440.494C209.773 439.963 213.313 439.711 216.856 439.742C218.623 439.776 220.387 439.836 222.15 440.025C223.94 440.179 225.718 440.443 227.476 440.815C228.218 440.994 228.86 441.455 229.269 442.1C229.677 442.744 229.819 443.522 229.665 444.27C229.556 444.972 229.184 445.606 228.624 446.044C228.065 446.481 227.36 446.69 226.652 446.627L226.537 446.618Z" fill="#371A45"/>
<g opacity="0.35">
<path opacity="0.35" d="M154.369 300.514C155.069 301.656 155.753 302.778 156.407 303.88C155.753 302.778 155.072 301.65 154.369 300.514Z" fill="#371A45"/>
</g>
<g opacity="0.35">
<path opacity="0.35" d="M235.713 316.67C230.579 317.229 225.418 317.494 220.254 317.465C219.776 317.465 219.304 317.465 218.82 317.443C218.336 317.422 217.822 317.429 217.323 317.399C216.977 317.399 216.643 317.378 216.318 317.361C215.915 317.339 215.529 317.31 215.134 317.295C214.643 317.265 214.135 317.223 213.647 317.178H213.605C213.114 317.148 212.619 317.097 212.118 317.046C211.787 317.008 211.466 316.981 211.141 316.936C210.871 316.915 210.593 316.87 210.324 316.847C209.899 316.787 209.463 316.736 209.062 316.67C208.661 316.605 208.272 316.545 207.877 316.471C207.801 316.465 207.725 316.455 207.65 316.441C207.2 316.369 206.75 316.286 206.297 316.191C205.845 316.095 205.41 316.014 204.974 315.91L204.87 315.889L204.142 315.713C203.872 315.653 203.602 315.587 203.331 315.5C203.184 315.456 203.04 315.428 202.895 315.375V321.16C202.995 324.902 201.612 328.532 199.048 331.259C196.483 333.986 192.945 335.589 189.204 335.719H114.46C110.722 335.586 107.189 333.982 104.627 331.257C102.066 328.532 100.684 324.907 100.781 321.168V316.547C91.9139 317.728 82.9336 317.795 74.0494 316.747C74.6865 307.257 75.6443 297.9 76.7889 288.866C84.7898 289.19 92.8029 289.037 100.786 288.409V278.044C100.685 274.304 102.067 270.676 104.631 267.95C107.194 265.224 110.731 263.622 114.47 263.493H189.198C191.343 263.518 193.452 264.055 195.348 265.058C197.245 266.061 198.875 267.502 200.103 269.261C201.925 271.826 202.899 274.897 202.889 278.044V287.764C204.477 288.006 206.14 288.214 207.86 288.375C216.212 289.055 224.599 289.207 232.97 288.832C234.112 297.847 235.061 307.191 235.713 316.67Z" fill="#371A45"/>
</g>
<path d="M114.829 301.142C104.447 305.602 88.3795 304.676 77.4238 303.266C75.817 303.003 74.2778 302.425 72.8945 301.566C71.5112 300.707 70.3108 299.584 69.3621 298.261C68.4133 296.937 67.7348 295.44 67.3654 293.854C66.996 292.268 66.9429 290.625 67.2092 289.019C67.5358 286.04 68.9675 283.292 71.2214 281.317C73.4754 279.342 76.3879 278.284 79.3839 278.352C89.6303 278.862 104.999 279.102 114.731 276.806" fill="white"/>
<g opacity="0.35">
<path opacity="0.35" d="M114.829 301.14C104.451 305.613 88.3819 304.676 77.4283 303.264C75.8216 303.001 74.2825 302.424 72.899 301.566C71.5155 300.708 70.3149 299.585 69.3657 298.263C68.4166 296.94 67.7376 295.443 67.3676 293.858C66.9976 292.272 66.9439 290.629 67.2095 289.023C67.421 287.465 67.9169 285.959 68.6727 284.581C69.5389 286.226 70.7851 287.641 72.3079 288.709C73.8306 289.776 75.586 290.465 77.4283 290.718C88.367 292.124 104.398 293.054 114.78 288.618L114.829 301.14Z" fill="#371A45"/>
</g>
<path d="M94.1856 307.378C88.468 307.342 82.7584 306.946 77.0905 306.193C75.1335 305.933 73.2519 305.269 71.5651 304.243C69.8783 303.217 68.4233 301.852 67.2922 300.234C64.8856 296.861 63.8752 292.688 64.472 288.588C64.8651 284.902 66.6314 281.5 69.4193 279.057C72.2073 276.615 75.8125 275.311 79.5178 275.407C94.6082 276.156 106.912 275.634 114.133 273.92C115.589 273.576 119.208 273.563 121.34 280.854C123.508 288.261 123.262 300.692 115.863 303.878C108.934 306.444 101.57 307.633 94.1856 307.378ZM78.8234 281.287C76.6065 281.342 74.485 282.2 72.8534 283.702C71.2218 285.204 70.1912 287.247 69.9531 289.452C69.5824 291.988 70.2055 294.57 71.6923 296.658C72.3913 297.658 73.2907 298.502 74.3333 299.136C75.376 299.77 76.5391 300.18 77.7488 300.34C93.4104 302.355 106.205 301.667 113.78 298.409C116.016 297.448 116.664 293.597 116.838 291.988C117.399 287.815 116.694 283.57 114.814 279.802C104.94 282.007 90.07 281.837 79.2439 281.289C79.1101 281.289 78.9657 281.287 78.8234 281.287Z" fill="#371A45"/>
<path d="M231.647 303.268C225.782 304.052 219.872 304.439 213.955 304.426C213.53 304.426 213.106 304.426 212.664 304.404C212.222 304.383 211.753 304.383 211.301 304.364C210.993 304.364 210.691 304.343 210.396 304.328L209.334 304.266C208.882 304.239 208.429 304.205 207.983 304.169H207.95C207.504 304.133 207.051 304.092 206.605 304.043C206.31 304.016 206.015 303.982 205.726 303.946C205.478 303.924 205.227 303.89 204.985 303.863C204.598 303.814 204.212 303.757 203.838 303.701C203.464 303.646 203.125 303.589 202.776 303.527C202.705 303.523 202.633 303.511 202.564 303.491C202.152 303.43 201.744 303.353 201.345 303.279C200.946 303.205 200.538 303.117 200.145 303.028L200.045 303.007C199.822 302.952 199.599 302.901 199.383 302.846C199.166 302.79 198.899 302.729 198.654 302.657C197.913 302.461 197.187 302.232 196.48 302.003C196.1 301.877 195.72 301.737 195.346 301.597C194.972 301.457 194.605 301.304 194.25 301.151L194.295 289.471L194.346 276.821C197.114 277.444 199.922 277.879 202.749 278.125C211.714 278.818 220.715 278.899 229.691 278.369C229.874 278.369 230.058 278.354 230.247 278.354C233.146 278.432 235.919 279.557 238.054 281.519C240.189 283.482 241.541 286.151 241.861 289.034C242.127 290.639 242.073 292.281 241.703 293.866C241.333 295.451 240.654 296.947 239.706 298.269C238.757 299.591 237.557 300.713 236.174 301.571C234.791 302.429 233.253 303.006 231.647 303.268Z" fill="white"/>
<g opacity="0.35">
<path opacity="0.35" d="M231.649 303.262C225.785 304.048 219.874 304.435 213.957 304.419C213.522 304.419 213.097 304.419 212.66 304.398C212.222 304.377 211.753 304.383 211.301 304.36C210.988 304.36 210.691 304.339 210.394 304.322C210.033 304.3 209.68 304.277 209.332 304.262C208.882 304.233 208.425 304.196 207.979 304.158H207.943C207.501 304.128 207.049 304.086 206.605 304.033C206.306 304.003 206.017 303.973 205.724 303.937C205.473 303.916 205.225 303.878 204.983 303.857C204.596 303.806 204.206 303.753 203.838 303.695C203.471 303.638 203.125 303.585 202.776 303.519C202.705 303.514 202.634 303.504 202.564 303.489C202.154 303.423 201.746 303.349 201.343 303.262C200.939 303.175 200.54 303.107 200.143 303.011L200.045 302.99L199.387 302.835C199.143 302.776 198.903 302.718 198.659 302.644C197.918 302.453 197.189 302.219 196.482 301.988C196.102 301.863 195.72 301.722 195.346 301.582C194.972 301.442 194.605 301.296 194.25 301.141L194.299 289.461V288.611C194.639 288.76 194.985 288.904 195.346 289.036C195.707 289.168 196.102 289.316 196.482 289.442C197.189 289.677 197.918 289.898 198.659 290.098C198.903 290.164 199.143 290.229 199.387 290.28C199.631 290.331 199.822 290.384 200.045 290.442L200.143 290.463C200.538 290.552 200.939 290.633 201.343 290.714C201.746 290.794 202.154 290.869 202.564 290.926C202.633 290.946 202.705 290.959 202.776 290.964C203.131 291.024 203.484 291.081 203.838 291.134C204.193 291.187 204.594 291.245 204.983 291.295C205.227 291.325 205.476 291.361 205.724 291.376C206.015 291.414 206.306 291.448 206.605 291.48C207.049 291.525 207.499 291.569 207.943 291.606H207.986L209.338 291.701C209.693 291.722 210.046 291.746 210.4 291.761C210.7 291.775 210.997 291.79 211.307 291.799C211.757 291.82 212.214 291.837 212.666 291.843C213.118 291.85 213.526 291.865 213.964 291.865C219.88 291.876 225.791 291.49 231.655 290.707C233.497 290.449 235.251 289.758 236.774 288.689C238.296 287.621 239.542 286.206 240.411 284.562C241.163 285.941 241.657 287.447 241.868 289.004C242.136 290.612 242.085 292.256 241.716 293.844C241.348 295.432 240.669 296.931 239.72 298.256C238.77 299.58 237.569 300.705 236.184 301.564C234.799 302.423 233.258 303 231.649 303.262Z" fill="#371A45"/>
</g>
<path d="M214.887 307.378C207.5 307.634 200.134 306.445 193.203 303.878C185.811 300.692 185.558 288.265 187.733 280.866C189.856 273.578 193.483 273.589 194.94 273.933C202.173 275.632 214.477 276.163 229.555 275.419C233.26 275.319 236.867 276.619 239.657 279.06C242.446 281.5 244.214 284.902 244.607 288.588C245.202 292.688 244.189 296.86 241.781 300.232C240.65 301.85 239.194 303.215 237.508 304.241C235.821 305.267 233.939 305.93 231.982 306.19C226.315 306.945 220.605 307.342 214.887 307.378ZM195.284 298.412C202.857 301.669 215.654 302.355 231.318 300.342C232.527 300.181 233.69 299.77 234.733 299.136C235.775 298.502 236.675 297.658 237.374 296.658C238.864 294.57 239.491 291.988 239.122 289.45C238.877 287.172 237.785 285.068 236.062 283.558C234.339 282.047 232.111 281.24 229.82 281.295C218.99 281.835 204.125 282.005 194.25 279.809C192.374 283.574 191.67 287.816 192.228 291.986C192.402 293.595 193.05 297.445 195.286 298.407L195.284 298.412Z" fill="#371A45"/>
<path d="M198.255 268.766V307.764C198.346 311.148 197.096 314.431 194.777 316.897C192.458 319.364 189.258 320.813 185.875 320.93H118.297C114.915 320.812 111.716 319.362 109.399 316.896C107.081 314.429 105.833 311.147 105.925 307.764V268.766C105.836 265.385 107.086 262.107 109.403 259.644C111.72 257.181 114.917 255.733 118.297 255.617H185.875C187.814 255.637 189.72 256.121 191.435 257.028C193.149 257.935 194.622 259.238 195.73 260.83C197.382 263.146 198.265 265.922 198.255 268.766Z" fill="white"/>
<g opacity="0.35">
<path opacity="0.35" d="M198.255 268.768V307.768C198.344 311.151 197.092 314.432 194.773 316.895C192.453 319.359 189.254 320.806 185.872 320.922H118.297C114.917 320.806 111.721 319.359 109.404 316.896C107.087 314.434 105.837 311.155 105.927 307.775V293.179C113.175 308.138 137.764 314.014 158.002 311.843C159.105 311.695 160.164 311.316 161.112 310.733C162.059 310.149 162.874 309.373 163.503 308.455C164.132 307.537 164.561 306.498 164.763 305.403C164.965 304.309 164.936 303.185 164.676 302.102C164.345 300.652 164.179 299.169 164.182 297.681C164.182 289.174 169.491 282.276 176.027 282.276C182.351 282.276 187.531 288.728 187.866 296.851C195.976 285.585 196.414 270.518 195.724 260.83C197.376 263.147 198.261 265.923 198.255 268.768Z" fill="#371A45"/>
</g>
<path d="M185.169 323.869H119.015C114.679 323.728 110.577 321.875 107.604 318.715C104.632 315.556 103.033 311.348 103.156 307.012V269.522C103.033 265.186 104.632 260.978 107.604 257.819C110.577 254.659 114.679 252.806 119.015 252.665H185.169C189.505 252.806 193.608 254.659 196.58 257.819C199.552 260.978 201.152 265.186 201.029 269.522V307.012C201.152 311.348 199.552 315.556 196.58 318.715C193.608 321.875 189.505 323.728 185.169 323.869ZM119.015 258.56C116.195 258.651 113.526 259.856 111.593 261.91C109.66 263.965 108.62 266.702 108.7 269.522V307.012C108.62 309.832 109.66 312.569 111.593 314.624C113.526 316.679 116.195 317.883 119.015 317.974H185.169C187.989 317.883 190.658 316.679 192.591 314.624C194.524 312.569 195.564 309.832 195.484 307.012V269.522C195.564 266.702 194.524 263.965 192.591 261.91C190.658 259.856 187.989 258.651 185.169 258.56H119.015Z" fill="#371A45"/>
<path d="M168.483 280.248C169.442 279.201 170.608 278.365 171.907 277.793C173.206 277.221 174.61 276.926 176.029 276.926C177.448 276.926 178.852 277.221 180.151 277.793C181.451 278.365 182.616 279.201 183.575 280.248C185.584 282.435 186.699 285.297 186.699 288.267C186.699 291.237 185.584 294.099 183.575 296.286C182.616 297.333 181.451 298.169 180.151 298.741C178.852 299.313 177.448 299.608 176.029 299.608C174.61 299.608 173.206 299.313 171.907 298.741C170.608 298.169 169.442 297.333 168.483 296.286C166.474 294.099 165.359 291.237 165.359 288.267C165.359 285.297 166.474 282.435 168.483 280.248Z" fill="#22A7F0"/>
<path d="M186.705 288.269C186.707 288.874 186.66 289.479 186.565 290.076C186.307 287.461 185.086 285.035 183.139 283.27C181.192 281.505 178.658 280.528 176.03 280.528C173.402 280.528 170.868 281.505 168.92 283.27C166.973 285.035 165.752 287.461 165.494 290.076C165.4 289.479 165.353 288.874 165.354 288.269C165.265 286.812 165.474 285.352 165.97 283.98C166.466 282.607 167.238 281.35 168.238 280.286C169.238 279.223 170.445 278.376 171.785 277.796C173.125 277.217 174.569 276.918 176.029 276.918C177.488 276.918 178.933 277.217 180.272 277.796C181.612 278.376 182.819 279.223 183.819 280.286C184.819 281.35 185.591 282.607 186.087 283.98C186.583 285.352 186.793 286.812 186.703 288.269H186.705Z" fill="white"/>
<g opacity="0.35">
<path opacity="0.35" d="M186.698 288.265C186.786 289.72 186.574 291.177 186.077 292.547C185.581 293.917 184.809 295.171 183.81 296.232C182.81 297.293 181.605 298.138 180.267 298.716C178.929 299.294 177.487 299.592 176.029 299.592C174.572 299.592 173.13 299.294 171.792 298.716C170.454 298.138 169.248 297.293 168.249 296.232C167.25 295.171 166.478 293.917 165.981 292.547C165.485 291.177 165.273 289.72 165.36 288.265C165.357 286.865 165.604 285.475 166.091 284.162C166.771 286.262 168.1 288.093 169.885 289.391C171.67 290.689 173.821 291.388 176.028 291.388C178.236 291.388 180.387 290.689 182.172 289.391C183.957 288.093 185.285 286.262 185.966 284.162C186.453 285.475 186.701 286.865 186.698 288.265Z" fill="#371A45"/>
</g>
<path d="M176.032 301.818C172.578 301.61 169.334 300.092 166.962 297.574C164.59 295.055 163.27 291.726 163.27 288.266C163.27 284.806 164.59 281.477 166.962 278.958C169.334 276.44 172.578 274.922 176.032 274.714C179.485 274.922 182.729 276.44 185.101 278.958C187.473 281.477 188.794 284.806 188.794 288.266C188.794 291.726 187.473 295.055 185.101 297.574C182.729 300.092 179.485 301.61 176.032 301.818ZM176.032 279.133C174.202 279.021 172.381 279.462 170.804 280.397C169.228 281.333 167.969 282.721 167.19 284.38C166.412 286.04 166.15 287.895 166.439 289.706C166.728 291.516 167.554 293.198 168.81 294.533C170.066 295.868 171.694 296.796 173.483 297.194C175.273 297.593 177.141 297.445 178.845 296.769C180.549 296.094 182.011 294.922 183.041 293.405C184.071 291.889 184.622 290.098 184.622 288.265C184.688 285.917 183.822 283.638 182.212 281.927C180.602 280.216 178.38 279.212 176.032 279.135V279.133Z" fill="#371A45"/>
<path d="M145.792 323.869C145.033 323.846 144.315 323.522 143.795 322.97C143.275 322.417 142.995 321.68 143.018 320.922V299.775C143.027 298.185 142.681 296.613 142.006 295.174C141.33 293.735 140.343 292.464 139.115 291.455L135.617 288.656C133.695 287.075 132.149 285.085 131.091 282.832C130.034 280.579 129.491 278.118 129.504 275.629V255.614C129.48 255.236 129.534 254.857 129.663 254.5C129.792 254.143 129.992 253.817 130.252 253.54C130.512 253.264 130.825 253.044 131.173 252.893C131.522 252.743 131.897 252.665 132.276 252.665C132.655 252.665 133.03 252.743 133.378 252.893C133.727 253.044 134.04 253.264 134.3 253.54C134.56 253.817 134.76 254.143 134.889 254.5C135.017 254.857 135.072 255.236 135.048 255.614V275.636C135.041 277.225 135.387 278.796 136.062 280.234C136.737 281.673 137.724 282.943 138.952 283.952L142.449 286.751C144.372 288.332 145.918 290.321 146.975 292.574C148.033 294.827 148.575 297.288 148.563 299.777V320.924C148.585 321.682 148.305 322.417 147.786 322.969C147.266 323.521 146.549 323.845 145.792 323.869Z" fill="#371A45"/>
<path d="M117.694 182.692C117.694 182.692 106.819 167.364 90.2274 182.692H117.694Z" fill="white"/>
<path d="M117.698 185.648C117.264 185.645 116.837 185.538 116.453 185.336C116.069 185.134 115.738 184.842 115.49 184.486C113.144 181.482 109.741 179.484 105.974 178.901C101.561 178.432 96.8807 180.462 92.0495 184.924C91.7806 185.176 91.4621 185.371 91.1142 185.494C90.7663 185.617 90.3966 185.666 90.0286 185.639C89.6606 185.611 89.3024 185.508 88.9765 185.335C88.6506 185.162 88.3643 184.923 88.1357 184.633C87.652 184.032 87.4117 183.271 87.4625 182.5C87.5132 181.73 87.8512 181.008 88.4096 180.475C94.4725 174.875 100.599 172.373 106.615 173.042C111.909 173.823 116.685 176.654 119.911 180.923C120.355 181.554 120.545 182.328 120.444 183.093C120.343 183.857 119.958 184.555 119.365 185.049C118.896 185.435 118.307 185.647 117.698 185.648Z" fill="#371A45"/>
<path d="M251.619 132.037C251.35 132.051 251.081 132.011 250.827 131.919C250.574 131.828 250.341 131.687 250.142 131.505C249.944 131.324 249.783 131.104 249.67 130.86C249.557 130.615 249.493 130.351 249.483 130.082L245.204 69.1956C245.15 68.6515 245.314 68.1083 245.658 67.6835C246.002 67.2588 246.499 66.9864 247.043 66.9254C258.565 66.0101 268.604 75.1969 269.466 87.4437L270.925 108.206C271.785 120.451 263.15 131.122 251.619 132.037Z" fill="white"/>
<path d="M251.468 132.57C250.867 132.57 250.287 132.342 249.846 131.933C249.34 131.461 249.036 130.813 248.997 130.122L244.709 69.2338C244.655 68.5392 244.869 67.8502 245.306 67.3077C245.511 67.0474 245.768 66.8321 246.06 66.675C246.353 66.5179 246.674 66.4225 247.005 66.3946C258.776 65.4474 269.09 74.889 269.961 87.4013L271.42 108.164C272.301 120.68 263.433 131.628 251.655 132.562C251.594 132.57 251.53 132.57 251.468 132.57ZM248.616 67.3905C248.108 67.3905 247.596 67.4111 247.081 67.4521C246.882 67.4688 246.688 67.5262 246.512 67.6208C246.336 67.7154 246.181 67.8452 246.057 68.0021C245.796 68.3277 245.667 68.7407 245.699 69.1574L249.978 130.041C249.986 130.243 250.033 130.442 250.118 130.625C250.204 130.808 250.324 130.973 250.473 131.109C250.622 131.246 250.797 131.351 250.987 131.42C251.177 131.489 251.379 131.519 251.581 131.509C262.813 130.617 271.265 120.181 270.426 108.245L268.967 87.482C268.739 82.1821 266.514 77.1646 262.739 73.4377C258.964 69.7107 253.919 67.5503 248.616 67.3905Z" fill="#371A45"/>
<g opacity="0.35">
<path opacity="0.35" d="M270.241 98.4697L270.927 108.206C271.777 120.449 263.142 131.12 251.619 132.04C251.35 132.053 251.081 132.012 250.827 131.92C250.574 131.828 250.341 131.687 250.142 131.505C249.943 131.323 249.782 131.103 249.669 130.858C249.555 130.614 249.492 130.349 249.481 130.08L248.338 113.896C248.509 114.248 248.78 114.541 249.118 114.739C249.456 114.936 249.844 115.03 250.235 115.006L251.594 114.894C256.031 114.454 260.217 112.632 263.563 109.685C266.908 106.738 269.245 102.815 270.241 98.4697Z" fill="#371A45"/>
</g>
<path d="M251.464 134.994C250.312 134.991 249.204 134.552 248.362 133.766C247.389 132.866 246.801 131.627 246.718 130.305L242.439 69.4208C242.338 68.0927 242.746 66.776 243.581 65.7384C243.976 65.24 244.469 64.8278 245.029 64.5272C245.59 64.2266 246.205 64.044 246.839 63.9907C249.971 63.7469 253.12 64.157 256.085 65.1948C259.05 66.2327 261.767 67.8758 264.064 70.0196C268.897 74.4894 271.822 80.65 272.231 87.2209L273.69 107.983C274.663 121.831 264.854 133.938 251.817 134.972C251.704 134.987 251.585 134.994 251.464 134.994ZM248.018 69.8221L252.178 129.022C256.762 128.431 260.933 126.073 263.805 122.452C266.98 118.501 268.533 113.49 268.149 108.436L266.691 87.6732C266.49 82.8626 264.435 78.3164 260.955 74.9883C257.476 71.6601 252.843 69.8086 248.028 69.8221H248.018Z" fill="#371A45"/>
<path d="M57.9589 81.9373C58.2279 81.9239 58.497 81.964 58.7504 82.0554C59.0038 82.1467 59.2367 82.2873 59.4354 82.4692C59.6341 82.6512 59.7947 82.8707 59.908 83.1151C60.0212 83.3595 60.0849 83.624 60.0952 83.8932L64.3743 144.777C64.4273 145.321 64.2642 145.864 63.9201 146.289C63.5759 146.714 63.0785 146.986 62.5352 147.047C51.0125 147.962 40.9742 138.776 40.112 126.529L38.6531 105.766C37.7931 93.5216 46.4361 82.8505 57.9589 81.9373Z" fill="white"/>
<path d="M60.9596 147.642C55.3984 147.474 50.1065 145.209 46.1468 141.3C42.1871 137.392 39.853 132.13 39.6131 126.571L38.1541 105.807C37.2728 93.2901 46.141 82.3429 57.9186 81.4085C58.2557 81.3908 58.593 81.4403 58.9109 81.5541C59.2288 81.6679 59.5208 81.8436 59.7702 82.0713C60.0195 82.2989 60.2212 82.5738 60.3634 82.88C60.5056 83.1862 60.5855 83.5176 60.5986 83.8549L64.8776 144.739C64.9433 145.419 64.739 146.098 64.3088 146.629C63.8786 147.16 63.2569 147.501 62.5778 147.578C62.032 147.621 61.4926 147.642 60.9596 147.642ZM57.9865 82.4661C46.7548 83.358 38.3028 93.7934 39.1416 105.73L40.6005 126.493C41.4394 138.43 51.2611 147.408 62.4886 146.523C62.8951 146.476 63.2672 146.272 63.5252 145.955C63.7832 145.637 63.9066 145.231 63.8689 144.824L59.5983 83.9335C59.591 83.7314 59.5435 83.5327 59.4587 83.3491C59.3738 83.1655 59.2533 83.0006 59.104 82.864C58.9548 82.7274 58.7799 82.6219 58.5895 82.5536C58.3991 82.4853 58.197 82.4555 57.995 82.4661H57.9865Z" fill="#371A45"/>
<g opacity="0.35">
<path opacity="0.35" d="M63.1935 127.886L64.3785 144.777C64.4304 145.322 64.266 145.866 63.9208 146.291C63.5756 146.716 63.0772 146.988 62.5331 147.049C59.6278 147.268 56.7096 146.854 53.9798 145.836C51.2499 144.818 48.7733 143.22 46.7207 141.152C42.8177 137.246 40.4694 132.054 40.1141 126.544L39.4983 117.794C41.3068 121.471 44.1662 124.527 47.714 126.576C51.2618 128.626 55.3381 129.575 59.4262 129.304L61.5159 129.139C61.8831 129.102 62.2335 128.967 62.5291 128.746C62.8248 128.525 63.0545 128.228 63.1935 127.886Z" fill="#371A45"/>
</g>
<path d="M60.9598 150.056C48.6896 150.056 38.2775 139.961 37.3474 126.748L35.8863 105.987C35.3818 99.3856 37.41 92.8396 41.5585 87.6796C43.5196 85.2014 45.9687 83.1522 48.754 81.6589C51.5393 80.1656 54.6015 79.2601 57.751 78.9983C58.3936 78.9681 59.0359 79.0651 59.6409 79.2838C60.2459 79.5025 60.8017 79.8385 61.2765 80.2726C61.7512 80.7067 62.1355 81.2304 62.4074 81.8134C62.6792 82.3965 62.8331 83.0275 62.8604 83.6703L67.1395 144.552C67.2661 145.852 66.8771 147.15 66.0561 148.167C65.2351 149.183 64.0479 149.837 62.75 149.986C62.1469 150.033 61.5501 150.056 60.9598 150.056ZM57.39 84.9529C52.6071 85.7108 48.2928 88.2631 45.3256 92.09C42.3583 95.917 40.961 100.731 41.4183 105.552L42.8772 126.312C43.1887 131.347 45.4295 136.069 49.1334 139.494C52.493 142.629 56.9567 144.309 61.5501 144.166L57.39 84.9529Z" fill="#371A45"/>
<g opacity="0.35">
<path opacity="0.35" d="M240.033 170.112C234.516 183.108 226.294 194.78 215.915 204.351C209.097 210.63 201.379 215.855 193.016 219.853C180.614 225.769 167.008 228.726 153.269 228.489C139.53 228.253 126.033 224.83 113.842 218.49C106.574 214.714 99.8362 209.997 93.8013 204.461C83.9557 195.405 76.0381 184.455 70.5223 172.267C88.542 180.51 107.414 186.744 126.798 190.857L122.646 199.723H183.575L179.413 190.857C179.413 190.857 212.67 184.287 240.033 170.112Z" fill="#371A45"/>
</g>
<path d="M154.802 211.029C208.867 211.029 252.694 164.448 252.694 106.987C252.694 49.5265 208.867 2.94531 154.802 2.94531C100.738 2.94531 56.9104 49.5265 56.9104 106.987C56.9104 164.448 100.738 211.029 154.802 211.029Z" fill="white"/>
<path d="M154.792 211.556C141.773 211.52 128.901 208.806 116.977 203.581C105.053 198.357 94.3311 190.735 85.4793 181.188C66.7082 161.2 56.307 134.78 56.4134 107.359C56.1242 79.9318 66.3469 53.4347 84.9824 33.3087C93.8088 23.6521 104.536 15.9235 116.49 10.6079C128.444 5.29229 141.367 2.50426 154.45 2.4187H154.811C167.829 2.4545 180.701 5.16903 192.626 10.3934C204.55 15.6177 215.272 23.2401 224.123 32.7863C242.895 52.7762 253.297 79.1978 253.189 106.62C253.478 134.047 243.256 160.544 224.62 180.67C215.794 190.327 205.067 198.056 193.113 203.372C181.159 208.688 168.235 211.477 155.153 211.562L154.792 211.556ZM154.811 3.48051H154.454C141.504 3.56506 128.711 6.32508 116.877 11.5874C105.044 16.8497 94.4262 24.5007 85.6895 34.0605C67.2452 53.9809 57.1261 80.2061 57.4094 107.353C57.3014 134.496 67.5965 160.65 86.1779 180.437C94.9413 189.885 105.555 197.43 117.359 202.601C129.163 207.772 141.905 210.459 154.792 210.494H155.149C168.099 210.41 180.892 207.65 192.725 202.387C204.558 197.125 215.176 189.474 223.913 179.914C242.359 159.992 252.478 133.763 252.191 106.614C252.298 79.4697 242.003 53.316 223.42 33.5296C214.657 24.0826 204.044 16.5397 192.241 11.3702C180.437 6.20069 167.697 3.51511 154.811 3.48051Z" fill="#371A45"/>
<g opacity="0.35">
<path opacity="0.35" d="M251.704 92.2178C252.349 96.9909 252.679 101.801 252.692 106.618C252.878 164.076 209.209 210.821 155.148 211.032C101.087 211.242 57.1051 164.818 56.9076 107.359C56.9076 105.707 56.931 104.053 56.9989 102.424C63.769 153.044 104.78 191.881 154.26 191.696C206.762 191.492 249.455 147.396 251.704 92.2178Z" fill="#371A45"/>
</g>
<path d="M154.795 213.973C141.474 213.938 128.302 211.162 116.099 205.818C103.897 200.473 92.9252 192.674 83.8667 182.906C64.6632 162.454 54.0241 135.422 54.1362 107.368C53.8416 79.3073 64.3005 52.1988 83.3655 31.6078C92.3955 21.7271 103.37 13.8192 115.6 8.38001C127.831 2.94085 141.053 0.087852 154.438 0H154.808C168.127 0.0360613 181.297 2.81254 193.497 8.15671C205.697 13.5009 216.667 21.2984 225.724 31.0642C244.927 51.5166 255.566 78.5484 255.454 106.603C255.752 134.664 245.295 161.774 226.231 182.367C217.201 192.247 206.226 200.155 193.995 205.594C181.764 211.033 168.542 213.885 155.156 213.973H154.795ZM154.814 5.89301H154.466C141.817 5.97492 129.322 8.67 117.764 13.8092C106.206 18.9483 95.8344 26.4206 87.3006 35.7573C69.2852 55.2139 59.4023 80.8294 59.6809 107.344C59.577 133.855 69.6325 159.398 87.7805 178.723C96.3394 187.952 106.706 195.32 118.235 200.371C129.764 205.421 142.209 208.045 154.795 208.08H155.144C167.79 207.996 180.283 205.3 191.839 200.16C203.395 195.021 213.764 187.549 222.296 178.213C240.312 158.756 250.195 133.14 249.916 106.624C250.019 80.1146 239.964 54.5724 221.816 35.2477C213.258 26.0201 202.893 18.6522 191.365 13.6021C179.837 8.55208 167.393 5.92797 154.808 5.89301H154.814Z" fill="#371A45"/>
<path d="M252.388 109.287C252.761 128.87 247.226 148.11 236.504 164.501C228.738 176.383 196.329 197.547 155.872 198.738C118.361 199.842 83.8502 179.258 75.6722 167.693C64.3735 151.718 58.164 132.702 57.8573 113.137C56.9123 59.2805 100.064 36.0928 153.783 35.0183C207.502 33.9437 251.441 55.4176 252.388 109.287Z" fill="#371A45"/>
<path d="M152.904 201.741C115.195 201.741 81.8434 181.341 73.4552 169.477C61.7984 152.999 55.3945 133.383 55.0838 113.201C54.6166 86.6899 64.2642 66.0569 83.7525 51.85C100.729 39.4821 124.927 32.642 153.732 32.0707C182.536 31.4995 206.958 37.3797 224.357 49.0596C244.331 62.4744 254.695 82.7188 255.149 109.23C255.541 129.431 249.833 149.282 238.77 166.189C231.084 177.946 198.899 200.428 155.949 201.69C154.931 201.725 153.916 201.742 152.904 201.741ZM157.561 37.9319C156.327 37.9319 155.087 37.9446 153.834 37.9701C126.116 38.5201 102.967 45.0035 86.887 56.7173C69.0338 69.7244 60.2017 88.6904 60.6286 113.095C60.9231 132.046 66.939 150.465 77.8871 165.937C85.6617 176.931 119.255 196.871 155.794 195.803C196.274 194.612 227.321 173.395 234.223 162.832C244.613 146.955 249.977 128.315 249.613 109.345C249.188 84.9401 239.689 66.3373 221.392 54.0479C205.656 43.4787 183.645 37.9319 157.563 37.9319H157.561Z" fill="#371A45"/>
<g opacity="0.7">
<path opacity="0.7" d="M208.254 100.484C209.784 90.4477 216.573 83.2666 223.415 84.4423C230.256 85.618 234.561 94.7138 233.029 104.75C231.497 114.786 224.712 121.97 217.871 120.792C211.03 119.614 206.713 110.519 208.254 100.484Z" fill="white"/>
</g>
<g opacity="0.7">
<path opacity="0.7" d="M199.383 137.206C200.678 132.743 204.649 130.083 208.25 131.27C211.85 132.457 213.721 137.028 212.433 141.491C211.145 145.954 207.167 148.613 203.567 147.426C199.966 146.24 198.079 141.668 199.383 137.206Z" fill="white"/>
</g>
<g opacity="0.35">
<path opacity="0.35" d="M232.588 59.4121C244.692 71.2342 252.004 87.6561 252.388 109.287C252.761 128.873 247.228 148.117 236.51 164.514C228.742 176.395 196.331 197.559 155.874 198.755C142.174 199.028 128.536 196.833 115.613 192.276C165.305 189.683 204.79 163.709 214.418 148.973C228.027 128.17 235.052 103.749 234.575 78.8941C234.484 72.3545 233.818 65.8355 232.588 59.4121Z" fill="#111A28"/>
</g>
<path d="M64.3765 69.2997C63.8856 69.2987 63.412 69.1182 63.045 68.7922C62.6338 68.4168 62.3702 67.907 62.3017 67.3545C62.2332 66.802 62.3642 66.2432 62.6712 65.7788C79.297 38.7559 112.217 22.7906 153.007 21.9793C193.568 21.1766 227.047 35.3581 244.862 60.8775L243.191 62.2154L241.857 63.9355L241.66 63.7635L241.494 63.532C224.497 39.1806 192.26 25.6574 153.084 26.4389C113.676 27.2225 81.9855 42.4722 66.1412 68.274L65.9926 68.4864C65.8042 68.7374 65.5603 68.9415 65.2799 69.0826C64.9996 69.2237 64.6904 69.298 64.3765 69.2997ZM64.2533 66.9638L64.3765 67.0721L64.2533 66.9638Z" fill="#371A45"/>
<g opacity="0.7">
<path opacity="0.7" d="M80.2656 144.762C80.2656 144.762 63.6335 91.9247 90.2105 70.2236C116.787 48.5224 155.552 47.828 154.694 50.4889C154.694 50.4889 111.969 62.3811 95.8104 98.7776C83.3448 126.841 80.2656 144.762 80.2656 144.762Z" fill="white"/>
</g>
<path d="M19.6659 243.648C19.2433 243.899 18.8897 244.251 18.6372 244.672C18.3848 245.094 18.2413 245.572 18.2197 246.063C18.1584 246.823 18.3994 247.576 18.8905 248.16C19.3816 248.743 20.083 249.109 20.8424 249.178C53.9707 251.253 71.9831 280.758 72.1615 281.058C72.3447 281.381 72.5924 281.663 72.8893 281.886C73.1861 282.11 73.5257 282.27 73.8869 282.356C74.2482 282.443 74.6234 282.454 74.9893 282.39C75.3552 282.325 75.7039 282.186 76.0137 281.981C76.6477 281.543 77.0913 280.879 77.255 280.126C77.4186 279.373 77.2899 278.585 76.895 277.923C76.1093 276.602 57.2325 245.555 21.1758 243.298C20.6488 243.261 20.1228 243.383 19.6659 243.648Z" fill="#371A45"/>
</svg>
