<svg width="313" height="488" viewBox="0 0 313 488" fill="none" xmlns="http://www.w3.org/2000/svg">
<path d="M75.2861 83.9382H72.9968C71.5577 83.9382 70.3911 85.1048 70.3911 86.5439V96.7373C70.3911 98.1764 71.5577 99.343 72.9968 99.343H75.2861C76.7252 99.343 77.8918 98.1764 77.8918 96.7373V86.5439C77.8918 85.1048 76.7252 83.9382 75.2861 83.9382Z" fill="#F7F8F8" stroke="#251335" stroke-miterlimit="10"/>
<path d="M101.942 366.768H208.856C229.079 366.768 245.622 349.182 245.622 327.693V205.707C245.622 184.214 229.077 166.633 208.856 166.633H101.942C81.7188 166.633 65.1758 184.218 65.1758 205.707V327.691C65.1737 349.182 81.7209 366.768 101.942 366.768Z" fill="white"/>
<g opacity="0.35">
<path opacity="0.35" d="M111.848 355.78H198.949C219.172 355.78 235.715 338.194 235.715 316.705V216.695C235.715 195.202 219.17 177.62 198.949 177.62H111.848C91.6251 177.62 75.082 195.206 75.082 216.695V316.703C75.0799 338.194 91.6272 355.78 111.848 355.78Z" fill="#371A45"/>
</g>
<path d="M208.856 369.717H101.942C80.139 369.717 62.4004 350.864 62.4004 327.691V205.707C62.4004 182.534 80.139 163.681 101.942 163.681H208.856C230.659 163.681 248.398 182.534 248.398 205.707V327.697C248.398 350.866 230.661 369.717 208.856 369.717ZM101.944 169.576C83.1992 169.576 67.9494 185.783 67.9494 205.707V327.697C67.9494 347.619 83.1992 363.828 101.944 363.828H208.858C227.603 363.828 242.853 347.621 242.853 327.697V205.707C242.853 185.786 227.603 169.576 208.858 169.576H101.944Z" fill="#010101"/>
<path d="M126.875 216.706L119.179 211.046L102.861 199.05L75.7658 179.124C71.0434 181.807 66.5224 184.83 62.2383 188.168C16.1365 224.015 7.31501 288.635 6.41034 326.467C6.13424 336.147 6.41218 345.835 7.2428 355.483C7.29377 356.024 7.32775 356.309 7.32775 356.309C7.32775 356.309 8.11136 356.453 9.47898 356.682C15.4655 357.729 32.6541 360.611 44.1408 361.539C47.3706 361.948 50.6392 361.948 53.8691 361.539C61.4462 359.738 57.8466 325.818 69.7198 290.714C73.5682 280.326 78.8914 270.545 85.526 261.673C97.7054 245.285 111.564 230.214 126.875 216.706V216.706Z" fill="white"/>
<path d="M186.105 218.029L193.801 212.369L210.119 200.373L237.21 180.449C241.93 183.131 246.448 186.152 250.729 189.489C296.842 225.338 305.659 289.958 306.568 327.791C306.844 337.47 306.566 347.158 305.736 356.806C305.685 357.347 305.651 357.632 305.651 357.632C305.651 357.632 304.867 357.776 303.499 358.006C297.513 359.052 280.324 361.934 268.838 362.862C265.608 363.272 262.339 363.272 259.109 362.862C251.532 361.061 255.132 327.141 243.259 292.037C239.41 281.649 234.087 271.868 227.452 262.997C215.274 246.608 201.416 231.537 186.105 218.029V218.029Z" fill="white"/>
<path d="M204.13 404.273C195.154 404.273 183.478 402.313 168.473 396.651C167.96 396.414 167.551 395.998 167.323 395.48C167.096 394.963 167.065 394.38 167.237 393.842C167.288 393.581 167.395 393.334 167.549 393.117C167.703 392.9 167.902 392.718 168.131 392.583C168.361 392.448 168.616 392.364 168.881 392.335C169.145 392.306 169.413 392.333 169.666 392.415C214.579 409.353 227.722 391.727 227.853 391.546C227.993 391.326 228.179 391.139 228.399 391C228.619 390.86 228.867 390.771 229.126 390.739C229.385 390.707 229.647 390.733 229.895 390.815C230.142 390.897 230.368 391.033 230.557 391.213C230.961 391.615 231.213 392.144 231.269 392.711C231.326 393.278 231.185 393.847 230.869 394.322C230.474 394.897 223.755 404.273 204.13 404.273Z" fill="#008AF7"/>
<path d="M239.124 178.185C258.748 189.693 274.773 206.449 285.393 226.568C295.258 245.223 302.002 265.367 305.356 286.201C309.481 309.894 310.513 334.022 308.426 357.98L308.18 360.165L306.124 360.537C302.089 361.265 266.387 367.609 258.5 365.738C252.847 364.393 251.808 355.523 250.088 340.823C248.602 328.031 246.546 310.509 240.634 293.031C229.151 259.081 184.795 220.698 184.358 220.316C183.779 219.803 183.416 219.091 183.341 218.321C183.266 217.552 183.485 216.783 183.954 216.168C184.176 215.871 184.457 215.623 184.78 215.44C185.102 215.256 185.459 215.141 185.827 215.101C186.196 215.061 186.569 215.097 186.923 215.208C187.277 215.319 187.605 215.501 187.885 215.744C189.758 217.351 233.898 255.543 245.905 291.052C252.023 309.143 254.115 327.039 255.644 340.108C256.351 346.154 256.96 351.363 257.786 355.071C258.776 359.499 259.725 359.998 259.736 359.993C264.62 361.155 288.048 357.749 303.087 355.109C304.759 332.401 303.669 309.573 299.843 287.127C293.837 252.937 277.969 207.249 236.455 183.361L235.907 183.046C235.24 182.655 234.749 182.022 234.538 181.278C234.326 180.534 234.409 179.738 234.771 179.054C234.931 178.718 235.159 178.419 235.44 178.175C235.721 177.931 236.05 177.747 236.404 177.635C236.759 177.523 237.133 177.485 237.504 177.523C237.874 177.561 238.232 177.674 238.557 177.856L239.124 178.185Z" fill="black"/>
<path d="M306.388 364.447C310.739 358.112 312.208 347.398 306.456 343.179C300.703 338.959 263.108 344.251 258.237 347.999C253.365 351.747 253.539 373.413 259.432 376.031C265.325 378.649 296.77 378.45 306.388 364.447Z" fill="white"/>
<path d="M256.59 345.619C252.131 349.052 251.547 359.762 252.247 366.122C252.772 370.879 254.261 376.938 258.349 378.745C265.023 381.718 298.099 381.542 308.651 366.177C312.059 361.175 313.531 355.105 312.794 349.097C312.594 347.463 312.072 345.885 311.258 344.454C310.444 343.023 309.354 341.767 308.052 340.76C307.911 340.657 307.764 340.562 307.612 340.475C299.56 335.841 262.037 341.429 256.59 345.619ZM304.123 362.72C295.629 375.082 265.805 375.659 260.517 373.313C259.759 372.984 258.366 370.552 257.801 365.44C256.977 357.982 258.51 351.437 259.884 350.38C261.303 349.288 269.893 346.997 282.326 345.531C296.41 343.871 303.622 344.682 304.858 345.599C305.54 346.149 306.105 346.828 306.52 347.598C306.936 348.368 307.194 349.214 307.279 350.085C307.742 354.536 306.624 359.009 304.121 362.72H304.123Z" fill="black"/>
<path d="M293.316 244.973C293.74 245.223 294.095 245.575 294.348 245.997C294.602 246.418 294.746 246.896 294.769 247.388C294.832 248.15 294.592 248.906 294.1 249.491C293.609 250.076 292.905 250.443 292.144 250.512C259.015 252.587 241.003 282.092 240.824 282.392C240.641 282.715 240.393 282.997 240.097 283.22C239.8 283.444 239.46 283.604 239.099 283.69C238.738 283.777 238.362 283.789 237.997 283.724C237.631 283.66 237.282 283.52 236.972 283.316C236.338 282.877 235.895 282.214 235.731 281.46C235.567 280.707 235.696 279.919 236.091 279.257C236.877 277.936 255.753 246.889 291.81 244.632C292.335 244.593 292.859 244.712 293.316 244.973V244.973Z" fill="#101010"/>
<path d="M73.8546 176.86C54.2293 188.368 38.2045 205.124 27.583 225.243C17.7182 243.898 10.975 264.042 7.62091 284.876C3.49544 308.569 2.46323 332.697 4.55015 356.655L4.79649 358.84L6.85216 359.212C10.887 359.94 46.5894 366.283 54.4766 364.413C60.1296 363.068 61.1681 354.198 62.8882 339.498C64.3748 326.705 66.4304 309.183 72.3426 291.706C83.825 257.755 128.181 219.373 128.619 218.991C129.197 218.478 129.561 217.766 129.635 216.996C129.71 216.227 129.491 215.458 129.022 214.843C128.8 214.546 128.519 214.298 128.197 214.114C127.875 213.931 127.518 213.815 127.149 213.776C126.78 213.736 126.407 213.772 126.053 213.883C125.699 213.993 125.372 214.176 125.091 214.419C123.218 216.026 79.0787 254.217 67.0718 289.727C60.9536 307.818 58.8618 325.714 57.3328 338.782C56.6257 344.828 56.0162 350.038 55.1901 353.746C54.2005 358.173 53.2512 358.672 53.2406 358.668C48.3563 359.828 24.9284 356.423 9.88894 353.784C8.21752 331.075 9.30711 308.248 13.1338 285.802C19.1394 251.612 35.0072 205.924 76.5219 182.035L77.0698 181.721C77.7368 181.33 78.2271 180.696 78.4388 179.953C78.6504 179.209 78.567 178.412 78.2059 177.729C78.045 177.393 77.817 177.094 77.536 176.85C77.255 176.606 76.9269 176.422 76.5721 176.31C76.2172 176.198 75.8431 176.159 75.4729 176.197C75.1026 176.235 74.7441 176.349 74.4195 176.531L73.8546 176.86Z" fill="#0A0A0A"/>
<path d="M6.59524 363.123C2.24394 356.789 0.774389 346.075 6.52729 341.855C12.2802 337.636 49.8747 342.928 54.7463 346.676C59.6179 350.424 59.4438 372.089 53.5507 374.708C47.6576 377.326 16.211 377.127 6.59524 363.123Z" fill="white"/>
<path d="M5.36784 339.143C5.21593 339.23 5.06916 339.325 4.92825 339.428C3.62611 340.435 2.53657 341.691 1.72263 343.122C0.908682 344.553 0.386475 346.131 0.186196 347.765C-0.552087 353.773 0.920571 359.844 4.32939 364.846V364.846C14.8838 380.21 47.9571 380.376 54.6317 377.413C58.7196 375.606 60.2062 369.556 60.7328 364.791C61.4336 358.42 60.856 347.721 56.39 344.287C50.9408 340.105 13.4206 334.518 5.36784 339.143ZM8.85695 361.388C6.35313 357.677 5.23522 353.203 5.69913 348.751C5.78429 347.88 6.04226 347.035 6.45794 346.264C6.87362 345.494 7.43867 344.815 8.12006 344.266C9.35601 343.35 16.57 342.539 30.6517 344.198C43.0877 345.663 51.6756 347.957 53.0942 349.046C54.4682 350.108 55.9993 356.646 55.1774 364.107C54.6147 369.203 53.2195 371.65 52.4613 371.979C47.1735 374.328 17.3451 373.748 8.85483 361.388H8.85695Z" fill="#0A0A0A"/>
<path d="M248.026 467.806C247.977 468.262 247.922 468.71 247.839 469.16C245.601 482.622 230.037 487.424 202.037 483.72C189.359 482.049 171.826 480.059 167.209 469.825C157.982 449.394 167.405 402.895 166.309 376.415V376.364C158.722 377.22 151.063 377.22 143.476 376.364C143.476 376.577 143.463 376.789 143.454 377.014C142.512 403.523 151.726 449.551 142.567 469.829C137.941 480.063 120.417 482.053 107.739 483.724C79.7074 487.43 64.1413 482.62 61.9242 469.114C61.8478 468.689 61.7841 468.252 61.7437 467.81C60.1276 451.364 82.7676 443.724 82.7676 443.724C82.7676 443.724 77.8238 403.651 74.5746 372.157C72.8402 353.737 72.6662 335.202 74.0544 316.752C74.6914 307.261 75.6492 297.905 76.7938 288.871C78.6371 274.356 80.988 260.658 83.3771 248.569C87.4672 227.969 91.6953 211.993 93.8019 204.465C94.6684 201.384 95.1738 199.719 95.1738 199.719H214.581C214.581 199.719 215.08 201.345 215.919 204.355C217.998 211.775 222.2 227.579 226.276 248.016C228.709 260.225 231.101 274.105 232.974 288.835C234.118 297.854 235.068 307.196 235.719 316.678C237.104 335.153 236.93 353.713 235.199 372.16C231.939 403.651 227.013 443.726 227.013 443.726C227.013 443.726 249.642 451.352 248.026 467.806Z" fill="white"/>
<g opacity="0.35">
<path opacity="0.35" d="M115.049 364.179C127.402 366.25 139.884 367.456 152.406 367.789C168.685 367.789 194.742 364.179 194.742 364.179C182.919 372.588 168.657 376.873 154.157 376.371C128.589 375.806 115.049 364.179 115.049 364.179Z" fill="#371A45"/>
</g>
<path d="M214.583 185.038H95.1821C94.4312 184.993 93.7259 184.663 93.2101 184.115C92.6944 183.568 92.4072 182.844 92.4072 182.092C92.4072 181.339 92.6944 180.615 93.2101 180.068C93.7259 179.52 94.4312 179.19 95.1821 179.145H214.583C215.334 179.19 216.039 179.52 216.555 180.068C217.071 180.615 217.358 181.339 217.358 182.092C217.358 182.844 217.071 183.568 216.555 184.115C216.039 184.663 215.334 184.993 214.583 185.038Z" fill="#371A45"/>
<path d="M225.601 240.157C230.345 256.61 233.824 273.403 236.007 290.387C236.31 292.511 236.569 294.634 236.82 296.773C237.07 298.911 237.338 301.035 237.536 303.173L238.156 309.589C238.349 311.727 238.47 313.879 238.631 316.021L238.859 319.239L239.02 322.462C239.12 324.611 239.251 326.761 239.322 328.912C239.445 333.216 239.559 337.521 239.511 341.834C239.555 346.143 239.355 350.456 239.245 354.767C238.986 359.076 238.837 363.389 238.396 367.689C238.062 372.017 237.529 376.239 237.034 380.48L235.578 393.205L229.759 444.102L227.848 440.916C229.081 441.341 230.118 441.791 231.22 442.288C232.322 442.785 233.367 443.307 234.416 443.87C236.546 445.011 238.582 446.319 240.504 447.782C242.511 449.302 244.336 451.048 245.945 452.985C247.66 455.069 248.989 457.442 249.872 459.993C250.761 462.67 251.063 465.508 250.757 468.313C250.604 469.684 250.33 471.038 249.94 472.361C249.527 473.7 248.968 474.991 248.275 476.209C246.902 478.568 245.03 480.597 242.789 482.155C240.718 483.59 238.448 484.715 236.051 485.493C231.545 486.91 226.863 487.69 222.141 487.81C217.568 487.978 212.989 487.843 208.433 487.407C206.167 487.216 203.916 486.942 201.67 486.657L195.001 485.752C190.448 485.152 185.941 484.24 181.512 483.024C179.21 482.374 176.965 481.538 174.797 480.526C172.467 479.447 170.318 478.015 168.426 476.279C167.42 475.319 166.53 474.244 165.774 473.076C165.386 472.468 165.038 471.834 164.733 471.18L163.99 469.377C163.103 467.003 162.414 464.56 161.93 462.072C160.377 452.466 159.908 442.716 160.531 433.006C160.911 423.435 161.724 413.961 162.442 404.53C162.797 399.818 163.132 395.114 163.362 390.431C163.472 388.095 163.561 385.759 163.593 383.423C163.642 381.064 163.593 378.874 163.527 376.364L166.628 379.291C164.612 379.526 162.707 379.673 160.745 379.785C158.783 379.898 156.844 379.951 154.884 379.953C152.924 379.955 150.972 379.894 149.023 379.785C147.073 379.677 145.156 379.526 143.14 379.291L146.239 376.473C146.1 385.836 146.462 395.199 147.324 404.524C148.031 413.955 148.844 423.424 149.225 432.999C149.411 437.786 149.49 442.596 149.339 447.44C149.223 452.348 148.716 457.24 147.823 462.068C147.337 464.555 146.649 466.998 145.763 469.373L145.02 471.176C144.714 471.829 144.366 472.463 143.979 473.072C143.224 474.24 142.333 475.315 141.327 476.275C139.435 478.01 137.286 479.443 134.956 480.522C132.789 481.535 130.543 482.37 128.241 483.019C123.816 484.234 119.314 485.145 114.765 485.746L108.096 486.651C105.85 486.933 103.599 487.209 101.333 487.4C96.7772 487.836 92.1978 487.97 87.6246 487.802C82.9028 487.681 78.2209 486.901 73.7149 485.485C71.3181 484.707 69.048 483.582 66.9766 482.146C64.7355 480.589 62.8631 478.56 61.4913 476.2C60.8003 474.981 60.2428 473.691 59.8285 472.352C59.4401 471.033 59.1665 469.683 59.0109 468.317C58.7069 465.511 59.0104 462.672 59.9007 459.993C60.784 457.442 62.1151 455.069 63.8316 452.985C65.44 451.048 67.2663 449.303 69.2744 447.784C71.1967 446.321 73.2327 445.014 75.3628 443.874C76.4147 443.308 77.4801 442.781 78.5589 442.292C79.6589 441.798 80.6953 441.356 81.9312 440.92L80.0199 444.106L74.2033 393.379L72.7529 380.694C72.2772 376.462 71.7421 372.261 71.4235 367.953C70.9988 363.665 70.8459 359.367 70.5974 355.073C70.5082 350.777 70.3277 346.478 70.3851 342.187C70.3532 337.891 70.4976 333.603 70.6165 329.313C70.6802 327.168 70.8289 325.032 70.9096 322.889L71.0561 319.676L71.2685 316.469C71.8143 307.916 72.5193 299.376 73.5663 290.884C74.5346 282.39 75.9298 273.94 77.6011 265.572C79.2431 257.201 81.3861 248.936 84.0187 240.822C84.0542 240.702 84.1136 240.591 84.1934 240.495C84.2731 240.4 84.3716 240.321 84.4826 240.265C84.5937 240.208 84.7151 240.175 84.8395 240.167C84.9638 240.159 85.0885 240.177 85.2058 240.218C85.4069 240.3 85.5758 240.445 85.687 240.631C85.7981 240.817 85.8454 241.035 85.8217 241.251C85.0147 249.764 83.8743 258.163 82.7552 266.554C81.636 274.944 80.4829 283.311 79.4338 291.695C77.1826 308.434 76.0115 325.3 75.9277 342.189C75.864 346.406 76.0445 350.615 76.1401 354.826C76.3843 359.025 76.5266 363.236 76.9471 367.415C77.2529 371.586 77.7965 375.823 78.2658 380.04L79.7141 392.701L85.5116 443.346L85.7877 445.764L83.6004 446.535C82.7191 446.848 81.6785 447.279 80.7271 447.71C79.7757 448.141 78.801 448.625 77.8602 449.126C75.9883 450.127 74.1989 451.276 72.5087 452.56C70.8536 453.809 69.3473 455.244 68.0193 456.837C66.7578 458.361 65.7758 460.096 65.1185 461.961C64.5109 463.788 64.3052 465.724 64.5154 467.638C64.6285 468.617 64.8239 469.586 65.0994 470.532C65.3815 471.435 65.7573 472.305 66.2206 473.13C68.3527 476.423 71.6193 478.82 75.4011 479.866C79.4367 481.12 83.627 481.809 87.8519 481.911C92.1956 482.069 96.5451 481.94 100.872 481.524C103.053 481.342 105.234 481.074 107.413 480.8L114.015 479.906C118.328 479.339 122.598 478.479 126.795 477.332C130.778 476.369 134.488 474.507 137.64 471.887C138.306 471.249 138.896 470.537 139.399 469.764C139.635 469.387 139.848 468.996 140.036 468.593L140.632 467.141C141.392 465.093 141.983 462.986 142.399 460.842C143.847 451.72 144.278 442.465 143.684 433.248C143.312 423.874 142.508 414.462 141.796 405.004C140.915 395.45 140.548 385.856 140.696 376.262L140.804 373.094L143.792 373.444C145.568 373.657 147.466 373.801 149.314 373.905C151.161 374.009 153.032 374.062 154.886 374.067C156.74 374.071 158.6 374.011 160.459 373.905C162.317 373.799 164.205 373.652 165.98 373.444L168.972 373.094L169.076 376.379C169.151 378.605 169.193 381.155 169.142 383.534C169.108 385.948 169.017 388.348 168.904 390.741C168.669 395.524 168.331 400.274 167.974 405.01C167.261 414.475 166.456 423.889 166.084 433.254C165.483 442.471 165.911 451.726 167.358 460.849C167.772 462.993 168.363 465.1 169.125 467.147L169.72 468.6C169.907 469.003 170.12 469.394 170.357 469.77C170.859 470.543 171.449 471.256 172.115 471.894C175.267 474.513 178.977 476.376 182.961 477.339C187.156 478.486 191.426 479.346 195.738 479.912L202.341 480.806C204.522 481.08 206.703 481.348 208.881 481.533C213.208 481.948 217.558 482.078 221.901 481.921C226.126 481.82 230.316 481.132 234.352 479.878C238.133 478.833 241.4 476.437 243.533 473.144C243.999 472.323 244.375 471.452 244.654 470.549C244.929 469.603 245.124 468.636 245.238 467.657C245.447 465.742 245.242 463.804 244.635 461.976C243.98 460.11 242.999 458.374 241.738 456.85C240.41 455.257 238.904 453.822 237.249 452.573C235.559 451.288 233.769 450.14 231.897 449.139C230.957 448.636 230.001 448.16 229.033 447.722C228.064 447.285 227.043 446.858 226.159 446.548L223.972 445.777L224.248 443.358L230.077 392.536L231.53 379.832C232.001 375.598 232.513 371.35 232.804 367.165C233.214 362.973 233.335 358.745 233.566 354.536C233.626 350.312 233.779 346.09 233.69 341.86C233.645 333.405 233.28 324.943 232.694 316.497C232.108 308.051 231.318 299.61 230.39 291.181C228.51 274.322 226 257.543 223.806 240.599C223.767 240.347 223.827 240.089 223.974 239.881C224.121 239.673 224.344 239.53 224.594 239.484C224.815 239.454 225.039 239.506 225.225 239.63C225.41 239.754 225.544 239.941 225.601 240.157V240.157Z" fill="black"/>
<g opacity="0.35">
<path opacity="0.35" d="M142.547 469.825C137.924 480.059 120.4 482.047 107.72 483.724C79.6882 487.428 64.122 482.616 61.9028 469.112C84.8571 478.356 125.316 473.079 132.235 461.346C141.193 446.155 142.641 430.978 128.712 412.05C114.783 393.122 113.707 363.272 113.707 363.272C120.364 368.242 134.059 373.642 143.437 377.012C142.505 403.519 151.717 449.547 142.547 469.825Z" fill="#371A45"/>
</g>
<g opacity="0.35">
<path opacity="0.35" d="M247.841 469.16C245.601 482.624 230.043 487.424 202.041 483.724C189.356 482.047 171.826 480.059 167.203 469.825C157.976 449.396 167.396 402.897 166.302 376.413C174.062 373.952 188.428 368.917 195.995 363.274C195.995 363.274 199.817 386.194 183.58 410.47C170.488 430.058 169.535 445.645 178.483 460.825C184.844 471.6 222.608 476.024 247.841 469.16Z" fill="#371A45"/>
</g>
<path d="M103.127 414.027C93.8041 414.027 84.8636 412.084 79.1298 406.203C78.7432 405.779 78.5151 405.234 78.4841 404.661C78.4531 404.088 78.6212 403.522 78.9599 403.058C79.1067 402.843 79.3001 402.664 79.5257 402.534C79.7513 402.405 80.0033 402.327 80.2629 402.308C80.5225 402.289 80.7831 402.329 81.0252 402.425C81.2673 402.52 81.4847 402.67 81.6612 402.861C96.5839 418.179 139.277 402.568 139.706 402.411C139.959 402.331 140.226 402.306 140.49 402.337C140.753 402.369 141.007 402.456 141.235 402.592C141.462 402.729 141.658 402.912 141.809 403.13C141.96 403.348 142.064 403.596 142.112 403.857C142.281 404.395 142.248 404.976 142.02 405.492C141.791 406.007 141.382 406.422 140.87 406.658C139.67 407.1 120.725 414.027 103.127 414.027Z" fill="#008FEF"/>
<path d="M143.021 379.278C141.606 379.046 140.204 378.741 138.82 378.363C137.466 377.989 136.121 377.579 134.8 377.112C132.143 376.192 129.551 375.092 127.043 373.82C125.779 373.204 124.541 372.518 123.318 371.824C122.116 371.07 120.895 370.374 119.731 369.56C117.251 368.024 115.15 365.946 113.588 363.482C113.551 363.424 113.539 363.353 113.552 363.286C113.565 363.218 113.604 363.158 113.66 363.117C113.686 363.099 113.716 363.086 113.747 363.079C113.779 363.073 113.811 363.073 113.842 363.079V363.079C116.512 363.729 119.095 364.692 121.538 365.948C123.944 367.097 126.41 368.084 128.89 369.006C130.131 369.469 131.384 369.883 132.628 370.321L136.397 371.493C137.661 371.854 138.92 372.217 140.184 372.555C141.447 372.892 142.749 373.211 143.902 373.47L144.002 373.491C144.741 373.683 145.377 374.154 145.776 374.805C146.175 375.456 146.305 376.237 146.141 376.982C146.016 377.693 145.622 378.328 145.041 378.756C144.46 379.183 143.736 379.37 143.021 379.278V379.278Z" fill="#0A0A0A"/>
<path d="M165.799 373.461C166.952 373.2 168.271 372.869 169.515 372.546C170.76 372.223 172.04 371.854 173.302 371.484L177.071 370.312C178.314 369.874 179.569 369.462 180.809 368.997C183.287 368.076 185.755 367.086 188.161 365.939C190.604 364.683 193.187 363.72 195.857 363.07V363.07C195.89 363.065 195.924 363.066 195.957 363.073C195.989 363.081 196.02 363.095 196.047 363.115C196.075 363.135 196.097 363.16 196.115 363.189C196.132 363.217 196.143 363.249 196.148 363.283C196.161 363.35 196.148 363.42 196.112 363.478C194.549 365.942 192.448 368.02 189.968 369.556C188.804 370.369 187.583 371.068 186.381 371.82C185.156 372.514 183.92 373.2 182.656 373.816C180.148 375.088 177.556 376.188 174.899 377.108C173.576 377.577 172.232 377.985 170.877 378.358C169.493 378.736 168.091 379.042 166.676 379.274C166.307 379.321 165.932 379.295 165.573 379.196C165.215 379.097 164.879 378.928 164.587 378.698C164.294 378.468 164.05 378.182 163.869 377.857C163.688 377.532 163.574 377.174 163.533 376.804C163.416 376.081 163.572 375.34 163.971 374.727C164.371 374.113 164.985 373.67 165.693 373.485L165.799 373.461Z" fill="#0A0A0A"/>
<path d="M82.2813 440.814C84.0389 440.442 85.8176 440.179 87.6074 440.024C89.3678 439.839 91.1347 439.776 92.9016 439.742C96.4439 439.713 99.983 439.964 103.486 440.494C107.018 441.046 110.478 441.992 113.8 443.314C117.145 444.709 120.197 446.721 122.798 449.245C119.557 448.193 116.25 447.354 112.9 446.733C109.625 446.207 106.324 445.852 103.012 445.671C99.6979 445.555 96.3829 445.59 93.0672 445.775C91.4108 445.843 89.7543 445.987 88.1022 446.121C86.45 446.255 84.7638 446.438 83.2178 446.618L83.1159 446.631C82.7441 446.663 82.3695 446.622 82.0139 446.508C81.6583 446.395 81.3288 446.212 81.0445 445.97C80.7602 445.728 80.5268 445.432 80.3578 445.1C80.1888 444.767 80.0875 444.404 80.06 444.031C79.9723 443.316 80.1499 442.594 80.5593 442.001C80.9687 441.408 81.5814 440.986 82.2813 440.814V440.814Z" fill="black"/>
<path d="M226.539 446.622C225.002 446.44 223.298 446.268 221.655 446.125C220.011 445.983 218.348 445.847 216.69 445.779C213.375 445.595 210.06 445.561 206.745 445.675C203.433 445.858 200.132 446.212 196.857 446.737C193.507 447.359 190.2 448.198 186.959 449.249C189.559 446.724 192.611 444.712 195.957 443.318C199.279 441.996 202.739 441.05 206.271 440.498C209.774 439.967 213.314 439.715 216.857 439.746C218.624 439.78 220.389 439.84 222.152 440.029C223.941 440.183 225.72 440.447 227.478 440.818C228.219 440.998 228.862 441.459 229.271 442.104C229.679 442.748 229.821 443.526 229.667 444.274C229.558 444.976 229.186 445.61 228.626 446.047C228.067 446.485 227.361 446.694 226.654 446.631L226.539 446.622Z" fill="black"/>
<path d="M117.695 182.694C117.695 182.694 106.82 167.365 90.228 182.694Z" fill="white"/>
<path d="M117.699 185.65C117.265 185.647 116.838 185.54 116.453 185.338C116.069 185.136 115.739 184.844 115.49 184.488C113.145 181.484 109.741 179.486 105.974 178.903C101.561 178.434 96.881 180.464 92.0498 184.926C91.7808 185.178 91.4623 185.372 91.1144 185.495C90.7666 185.618 90.3969 185.668 90.0289 185.641C89.6609 185.613 89.3026 185.51 88.9767 185.336C88.6509 185.163 88.3646 184.924 88.1359 184.635C87.6522 184.033 87.412 183.272 87.4627 182.502C87.5135 181.732 87.8515 181.009 88.4099 180.477C94.4728 174.877 100.599 172.375 106.616 173.044C111.91 173.825 116.685 176.655 119.912 180.925C120.355 181.555 120.546 182.33 120.445 183.094C120.343 183.859 119.958 184.557 119.366 185.051C118.896 185.437 118.307 185.649 117.699 185.65Z" fill="#371A45"/>
<path d="M251.621 132.039C251.352 132.052 251.083 132.012 250.829 131.921C250.576 131.829 250.343 131.689 250.144 131.507C249.945 131.325 249.785 131.105 249.672 130.861C249.558 130.617 249.495 130.352 249.484 130.083L245.205 69.1963C245.152 68.6522 245.315 68.1091 245.659 67.6843C246.003 67.2595 246.501 66.9872 247.044 66.9261V66.9261C258.567 66.0109 268.605 75.1977 269.468 87.4446L270.926 108.207C271.787 120.452 263.152 131.123 251.621 132.039Z" fill="white"/>
<path d="M251.47 132.572C250.868 132.571 250.289 132.344 249.847 131.935C249.342 131.463 249.037 130.814 248.998 130.123L244.71 69.2346C244.656 68.54 244.87 67.851 245.307 67.3085C245.513 67.0482 245.77 66.8328 246.062 66.6757C246.354 66.5187 246.675 66.4232 247.006 66.3953C258.777 65.4482 269.092 74.8898 269.962 87.4022L271.421 108.165C272.303 120.682 263.434 131.629 251.657 132.563C251.595 132.572 251.531 132.572 251.47 132.572ZM248.618 67.3913C248.11 67.3913 247.598 67.4118 247.082 67.4529C246.883 67.4695 246.69 67.527 246.514 67.6216C246.337 67.7162 246.183 67.846 246.059 68.0029C245.797 68.3285 245.669 68.7415 245.7 69.1581L249.979 130.043C249.987 130.245 250.035 130.443 250.12 130.626C250.205 130.81 250.325 130.974 250.475 131.111C250.624 131.247 250.798 131.353 250.989 131.421C251.179 131.49 251.381 131.52 251.582 131.51C262.814 130.618 271.266 120.183 270.427 108.246L268.968 87.4829C268.741 82.183 266.516 77.1655 262.741 73.4385C258.966 69.7115 253.92 67.5511 248.618 67.3913V67.3913Z" fill="#371A45"/>
<g opacity="0.35">
<path opacity="0.35" d="M270.243 98.4705L270.929 108.207C271.778 120.45 263.144 131.121 251.621 132.041C251.351 132.054 251.082 132.013 250.829 131.921C250.575 131.829 250.342 131.688 250.143 131.506C249.945 131.324 249.784 131.104 249.67 130.86C249.557 130.615 249.493 130.35 249.482 130.081L248.34 113.896C248.511 114.248 248.782 114.542 249.12 114.74C249.457 114.937 249.846 115.03 250.236 115.007L251.595 114.895C256.032 114.455 260.219 112.633 263.564 109.686C266.91 106.739 269.246 102.816 270.243 98.4705Z" fill="#371A45"/>
</g>
<path d="M251.466 134.995C250.314 134.992 249.205 134.554 248.363 133.767C247.391 132.868 246.802 131.628 246.72 130.306L242.44 69.4213C242.339 68.0933 242.748 66.7766 243.583 65.739C243.978 65.2405 244.47 64.8283 245.031 64.5277C245.591 64.2271 246.207 64.0445 246.841 63.9912C249.973 63.7474 253.121 64.1574 256.087 65.1953C259.052 66.2332 261.769 67.8763 264.065 70.0202C268.899 74.49 271.824 80.6507 272.233 87.2216L273.692 107.984C274.664 121.832 264.855 133.939 251.818 134.973C251.706 134.988 251.587 134.995 251.466 134.995ZM248.019 69.8227L252.179 129.023C256.763 128.432 260.935 126.074 263.806 122.453C266.981 118.502 268.535 113.491 268.151 108.437L266.692 87.6739C266.492 82.8632 264.436 78.317 260.957 74.9888C257.478 71.6607 252.845 69.8092 248.03 69.8227H248.019Z" fill="black"/>
<path d="M57.9591 81.9381C58.2282 81.9247 58.4972 81.9648 58.7507 82.0561C59.0041 82.1474 59.2369 82.2881 59.4356 82.47C59.6343 82.6519 59.795 82.8714 59.9082 83.1158C60.0215 83.3603 60.0851 83.6247 60.0955 83.8939L64.3746 144.778C64.4276 145.322 64.2645 145.866 63.9204 146.29C63.5762 146.715 63.0788 146.987 62.5355 147.049V147.049C51.0127 147.964 40.9744 138.777 40.1122 126.53L38.6532 105.767C37.7932 93.5225 46.4363 82.8512 57.9591 81.9381Z" fill="white"/>
<path d="M60.9597 147.643C55.3985 147.476 50.1066 145.21 46.1469 141.302C42.1872 137.393 39.853 132.131 39.6131 126.572L38.1541 105.808C37.2728 93.291 46.1411 82.3437 57.9187 81.4093C58.2559 81.3916 58.5932 81.441 58.911 81.5548C59.2289 81.6686 59.521 81.8444 59.7703 82.072C60.0197 82.2996 60.2213 82.5745 60.3635 82.8807C60.5057 83.1869 60.5857 83.5183 60.5987 83.8557L64.8778 144.74C64.9435 145.42 64.7392 146.099 64.3089 146.63C63.8787 147.162 63.2571 147.502 62.5779 147.579C62.0322 147.622 61.4928 147.643 60.9597 147.643ZM57.9867 82.4668C46.7548 83.3588 38.3028 93.7943 39.1416 105.731L40.6006 126.494C41.4394 138.431 51.2612 147.41 62.4888 146.524C62.8952 146.477 63.2673 146.274 63.5253 145.956C63.7833 145.638 63.9067 145.232 63.8691 144.825L59.5985 83.9343C59.5912 83.7321 59.5437 83.5334 59.4588 83.3498C59.374 83.1662 59.2534 83.0013 59.1042 82.8647C58.955 82.7282 58.7801 82.6226 58.5897 82.5543C58.3993 82.486 58.1972 82.4563 57.9952 82.4668H57.9867Z" fill="#371A45"/>
<g opacity="0.35">
<path opacity="0.35" d="M63.1934 127.887L64.3784 144.778C64.4303 145.324 64.2659 145.867 63.9207 146.292C63.5755 146.717 63.0771 146.99 62.533 147.051C59.6277 147.269 56.7095 146.855 53.9796 145.837C51.2498 144.819 48.7732 143.221 46.7205 141.153C42.8174 137.248 40.4691 132.055 40.1139 126.545L39.498 117.796C41.3065 121.472 44.166 124.529 47.7138 126.578C51.2616 128.627 55.338 129.576 59.4261 129.306L61.5158 129.14C61.883 129.104 62.2334 128.968 62.529 128.747C62.8247 128.526 63.0544 128.229 63.1934 127.887Z" fill="#371A45"/>
</g>
<path d="M60.96 150.058C48.6897 150.058 38.2775 139.962 37.3474 126.749L35.8863 105.988C35.3818 99.3866 37.41 92.8405 41.5585 87.6804C43.5197 85.2022 45.9688 83.153 48.7541 81.6597C51.5394 80.1664 54.6017 79.2608 57.7512 78.999V78.999C58.3938 78.9688 59.036 79.0658 59.641 79.2845C60.246 79.5032 60.8019 79.8393 61.2766 80.2734C61.7514 80.7075 62.1357 81.2311 62.4076 81.8142C62.6794 82.3973 62.8333 83.0283 62.8606 83.671L67.1397 144.553C67.2663 145.854 66.8773 147.152 66.0563 148.168C65.2353 149.185 64.0481 149.838 62.7502 149.988C62.1471 150.034 61.5503 150.058 60.96 150.058ZM57.3901 84.9537C52.6072 85.7116 48.2929 88.2639 45.3256 92.0909C42.3583 95.9179 40.9611 100.732 41.4184 105.553L42.8773 126.313C43.1887 131.349 45.4295 136.07 49.1335 139.495C52.4931 142.631 56.9568 144.31 61.5503 144.167L57.3901 84.9537Z" fill="#0F0E10"/>
<g opacity="0.35">
<path opacity="0.35" d="M240.034 170.113C234.517 183.109 226.296 194.781 215.916 204.353C209.098 210.632 201.38 215.857 193.017 219.855C180.615 225.771 167.009 228.728 153.269 228.491C139.53 228.255 126.034 224.832 113.842 218.492C106.575 214.716 99.8365 209.999 93.8016 204.463C83.9559 195.406 76.0383 184.456 70.5225 172.269C88.5422 180.512 107.415 186.746 126.799 190.859L122.647 199.725H183.576L179.413 190.859C179.413 190.859 212.671 184.288 240.034 170.113Z" fill="#371A45"/>
</g>
<path d="M154.803 211.031C208.867 211.031 252.696 164.45 252.696 106.988C252.696 49.5269 208.867 2.94531 154.803 2.94531C100.738 2.94531 56.9102 49.5269 56.9102 106.988C56.9102 164.45 100.738 211.031 154.803 211.031Z" fill="white"/>
<path d="M154.792 211.558C141.774 211.522 128.902 208.807 116.977 203.583C105.053 198.359 94.3311 190.736 85.4792 181.19C66.708 161.201 56.3067 134.781 56.4132 107.36C56.1239 79.9325 66.3467 53.4351 84.9823 33.309C93.8088 23.6523 104.536 15.9237 116.49 10.608C128.444 5.29232 141.368 2.50426 154.45 2.4187H154.811C167.83 2.4545 180.702 5.16906 192.626 10.3935C204.551 15.6179 215.272 23.2403 224.124 32.7866C242.897 52.7767 253.298 79.1985 253.19 106.621C253.48 134.048 243.257 160.546 224.621 180.672C215.795 190.329 205.068 198.058 193.114 203.374C181.16 208.69 168.236 211.478 155.153 211.564L154.792 211.558ZM154.811 3.48052H154.455C141.504 3.56507 128.711 6.32511 116.878 11.5875C105.044 16.8498 94.4262 24.5009 85.6895 34.0608C67.2451 53.9813 57.1259 80.2068 57.4092 107.354C57.3012 134.497 67.5963 160.651 86.1779 180.438C94.9413 189.887 105.555 197.432 117.359 202.603C129.163 207.774 141.905 210.46 154.792 210.496H155.149C168.099 210.411 180.893 207.651 192.726 202.389C204.559 197.127 215.177 189.476 223.914 179.916C242.36 159.993 252.479 133.764 252.192 106.615C252.3 79.4703 242.004 53.3165 223.421 33.5299C214.658 24.0827 204.045 16.5398 192.241 11.3703C180.438 6.20072 167.697 3.51512 154.811 3.48052V3.48052Z" fill="#371A45"/>
<g opacity="0.35">
<path opacity="0.35" d="M251.706 92.2185C252.351 96.9917 252.681 101.802 252.693 106.619C252.88 164.078 209.21 210.823 155.149 211.033C101.088 211.244 57.1052 164.819 56.9077 107.36C56.9077 105.708 56.9311 104.053 56.999 102.425C63.7691 153.046 104.781 191.883 154.261 191.698C206.763 191.494 249.457 147.397 251.706 92.2185Z" fill="#371A45"/>
</g>
<path d="M154.796 213.975C141.475 213.94 128.303 211.164 116.1 205.819C103.898 200.475 92.9257 192.676 83.8672 182.908C64.6635 162.455 54.0243 135.423 54.1364 107.369C53.8418 79.308 64.3008 52.1993 83.366 31.6081C92.3961 21.7273 103.371 13.8193 115.601 8.38009C127.832 2.94088 141.054 0.0878528 154.439 0H154.809C168.128 0.0360616 181.298 2.81257 193.498 8.15678C205.698 13.501 216.668 21.2986 225.725 31.0644C244.929 51.5171 255.568 78.5491 255.456 106.604C255.753 134.665 245.297 161.775 226.233 182.369C217.202 192.249 206.227 200.157 193.996 205.596C181.765 211.035 168.543 213.887 155.157 213.975H154.796ZM154.815 5.89307H154.467C141.818 5.97498 129.323 8.67008 117.764 13.8093C106.206 18.9485 95.8349 26.4209 87.3011 35.7577C69.2856 55.2144 59.4026 80.8301 59.6812 107.345C59.5773 133.856 69.6329 159.399 87.781 178.725C96.3399 187.953 106.706 195.322 118.235 200.373C129.765 205.423 142.21 208.047 154.796 208.082H155.144C167.791 207.998 180.285 205.301 191.84 200.162C203.396 195.022 213.765 187.55 222.298 178.215C240.314 158.758 250.197 133.141 249.918 106.625C250.021 80.1153 239.965 54.5729 221.818 35.248C213.259 26.0203 202.894 18.6523 191.366 13.6022C179.838 8.55216 167.394 5.92802 154.809 5.89307H154.815Z" fill="black"/>
<path d="M252.389 109.288C252.762 128.871 247.227 148.112 236.505 164.503C228.739 176.384 196.33 197.548 155.873 198.74C118.361 199.844 83.8502 179.26 75.6721 167.695C64.3733 151.719 58.1637 132.703 57.857 113.139C56.912 59.2812 100.064 36.0933 153.783 35.0187C207.502 33.9442 251.442 55.4183 252.389 109.288Z" fill="#FED363"/>
<path d="M152.905 201.742C115.195 201.742 81.8438 181.343 73.4555 169.478C61.7987 153 55.3948 133.384 55.0841 113.202C54.6169 86.6907 64.2645 66.0575 83.753 51.8504C100.729 39.4824 124.928 32.6422 153.733 32.071C182.538 31.4997 206.959 37.38 224.358 49.06C244.333 62.4749 254.696 82.7195 255.151 109.231C255.543 129.433 249.834 149.283 238.771 166.191C231.086 177.947 198.9 200.43 155.95 201.692C154.932 201.727 153.917 201.744 152.905 201.742ZM157.562 37.9322C156.328 37.9322 155.088 37.9449 153.835 37.9704C126.117 38.5204 102.968 45.0038 86.8875 56.7178C69.0341 69.725 60.202 88.6911 60.6288 113.096C60.9234 132.047 66.9393 150.467 77.8875 165.938C85.6621 176.932 119.256 196.873 155.795 195.805C196.275 194.613 227.323 173.396 234.225 162.833C244.615 146.957 249.978 128.317 249.614 109.346V109.346C249.19 84.9408 239.691 66.3378 221.394 54.0484C205.658 43.4791 183.646 37.9322 157.564 37.9322H157.562Z" fill="black"/>
<g opacity="0.7">
<path opacity="0.7" d="M208.255 100.485C209.785 90.4484 216.575 83.2672 223.416 84.443C230.257 85.6187 234.563 94.7145 233.031 104.751C231.498 114.787 224.713 121.971 217.872 120.793C211.031 119.615 206.715 110.519 208.255 100.485Z" fill="white"/>
</g>
<g opacity="0.7">
<path opacity="0.7" d="M199.384 137.207C200.679 132.744 204.65 130.085 208.251 131.271C211.851 132.458 213.723 137.029 212.434 141.492C211.146 145.955 207.168 148.614 203.568 147.428C199.967 146.241 198.08 141.67 199.384 137.207Z" fill="white"/>
</g>
<g opacity="0.35">
<path opacity="0.35" d="M232.589 59.4128C244.694 71.2351 252.005 87.6571 252.39 109.288C252.762 128.874 247.229 148.118 236.511 164.515C228.743 176.397 196.332 197.561 155.875 198.757C142.174 199.03 128.537 196.835 115.613 192.278C165.306 189.685 204.791 163.711 214.419 148.975C228.029 128.172 235.053 103.75 234.577 78.895C234.485 72.3553 233.82 65.8363 232.589 59.4128V59.4128Z" fill="#111A28"/>
</g>
<path d="M64.3768 69.3004C63.8858 69.2994 63.4123 69.1189 63.0452 68.7928C62.6341 68.4175 62.3705 67.9076 62.3019 67.3551C62.2334 66.8027 62.3645 66.2438 62.6715 65.7794C79.2973 38.7563 112.218 22.7908 153.008 21.9796C193.57 21.1769 227.048 35.3584 244.864 60.8781L243.192 62.216L241.859 63.9361L241.661 63.7641L241.495 63.5326C224.498 39.181 192.261 25.6577 153.085 26.4392C113.677 27.2228 81.9858 42.4726 66.1415 68.2747L65.9928 68.4871C65.8044 68.7381 65.5605 68.9422 65.2802 69.0833C64.9998 69.2244 64.6906 69.2987 64.3768 69.3004V69.3004ZM64.2536 66.9644L64.3768 67.0727L64.2536 66.9644Z" fill="black"/>
<g opacity="0.7">
<path opacity="0.7" d="M80.2658 144.764C80.2658 144.764 63.6335 91.9256 90.2107 70.2242C116.788 48.5229 155.552 47.8285 154.695 50.4894C154.695 50.4894 111.969 62.3817 95.8107 98.7785C83.345 126.842 80.2658 144.764 80.2658 144.764Z" fill="white"/>
</g>
<path d="M19.666 243.65C19.2434 243.901 18.8899 244.253 18.6374 244.675C18.3849 245.096 18.2414 245.574 18.2198 246.065C18.1585 246.825 18.3996 247.578 18.8906 248.162C19.3817 248.745 20.0831 249.111 20.8425 249.18C53.971 251.255 71.9836 280.761 72.162 281.06C72.3452 281.383 72.5929 281.665 72.8898 281.889C73.1866 282.112 73.5262 282.272 73.8875 282.359C74.2487 282.445 74.624 282.457 74.9898 282.392C75.3557 282.328 75.7044 282.189 76.0143 281.984C76.6482 281.545 77.0919 280.882 77.2555 280.129C77.4191 279.375 77.2905 278.588 76.8956 277.926C76.1098 276.605 57.2329 245.557 21.1759 243.3C20.6489 243.263 20.123 243.385 19.666 243.65V243.65Z" fill="black"/>
<path d="M220.232 202.494L177.759 312.923" stroke="#555555" stroke-width="4" stroke-linecap="round"/>
<path d="M89.918 202.494L138.761 312.923" stroke="#555555" stroke-width="4" stroke-linecap="round"/>
<path d="M246.888 293.568C246.888 293.568 274.348 288.622 295.219 267.709" stroke="#008AF7" stroke-linecap="round"/>
<path d="M94.9375 239.473C94.9375 239.473 157.55 226.23 217.863 239.473" stroke="#008AF7" stroke-width="2" stroke-linecap="round"/>
<path d="M248.397 297.253C266.476 293.219 283.082 284.25 296.37 271.344" stroke="#008AF7" stroke-linecap="round"/>
<path d="M249.738 300.825C267.666 297.051 284.174 288.318 297.381 275.621" stroke="#008AF7" stroke-width="1.00014" stroke-linecap="round"/>
<path d="M251.05 305.044C268.93 301.321 285.414 292.678 298.645 280.089" stroke="#008AF7" stroke-width="1.00014" stroke-linecap="round"/>
<path d="M283.641 266.467C283.641 266.467 292.022 283.705 291.603 299.72" stroke="#008AF7" stroke-linecap="round"/>
<path d="M206.22 414.027C215.543 414.027 224.483 412.084 230.217 406.203C230.604 405.779 230.832 405.234 230.863 404.661C230.894 404.088 230.725 403.522 230.387 403.058C230.24 402.843 230.047 402.664 229.821 402.534C229.595 402.405 229.343 402.327 229.084 402.308C228.824 402.289 228.564 402.329 228.322 402.425C228.079 402.52 227.862 402.67 227.686 402.861C212.763 418.179 170.069 402.568 169.641 402.411C169.387 402.331 169.12 402.306 168.857 402.337C168.593 402.369 168.339 402.456 168.112 402.592C167.885 402.729 167.689 402.912 167.538 403.13C167.386 403.348 167.283 403.596 167.234 403.857C167.065 404.395 167.098 404.976 167.327 405.492C167.556 406.007 167.964 406.422 168.477 406.658C169.677 407.1 188.621 414.027 206.22 414.027Z" fill="#008FEF"/>
<path d="M65.1753 291.67C65.1753 291.67 37.7126 286.724 16.8438 265.81" stroke="#008AF7" stroke-linecap="round"/>
<path d="M63.6655 295.354C45.5867 291.32 28.9806 282.352 15.6929 269.446" stroke="#008AF7" stroke-linecap="round"/>
<path d="M62.4956 298.994C44.5675 295.22 28.0596 286.488 14.8517 273.791" stroke="#008AF7" stroke-width="1.00014" stroke-linecap="round"/>
<path d="M61.1836 303.214C43.3039 299.491 26.8195 290.847 13.5885 278.258" stroke="#008AF7" stroke-width="1.00014" stroke-linecap="round"/>
<path d="M28.4216 264.568C28.4216 264.568 20.0405 281.807 20.4588 297.822" stroke="#008AF7" stroke-linecap="round"/>
</svg>
