<svg width="156" height="164" viewBox="0 0 156 164" fill="none" xmlns="http://www.w3.org/2000/svg">
<path d="M77.7802 163.659C120.518 163.659 155.164 127.073 155.164 81.9435C155.164 36.8135 120.518 0.228394 77.7802 0.228394C35.0421 0.228394 0.395996 36.8135 0.395996 81.9435C0.395996 127.073 35.0421 163.659 77.7802 163.659Z" fill="#30348C"/>
<path d="M95.4187 72.104C97.2737 73.2466 98.8127 74.8826 99.8824 76.849C100.952 78.8154 101.515 81.0436 101.515 83.3113C101.515 85.579 100.952 87.8071 99.8824 89.7735C98.8127 91.74 97.2737 93.376 95.4187 94.5185L76.3718 106.25C74.5048 107.4 72.3836 108.009 70.2223 108.017C68.061 108.024 65.936 107.43 64.0619 106.293C62.1877 105.156 60.6307 103.517 59.548 101.542C58.4652 99.5669 57.8951 97.325 57.895 95.0427V71.5773C57.8951 69.295 58.4652 67.0531 59.548 65.0778C60.6307 63.1026 62.1877 61.4639 64.0619 60.3271C65.936 59.1903 68.061 58.5957 70.2223 58.6032C72.3836 58.6108 74.5048 59.2202 76.3718 60.37L95.4187 72.104Z" fill="white"/>
</svg>
